<?xml version="1.0" standalone="no"?>
<!DOCTYPE svg PUBLIC "-//W3C//DTD SVG 1.1//EN" "http://www.w3.org/Graphics/SVG/1.1/DTD/svg11.dtd" >
<!--
2013-9-30: Created.
-->
<svg>
<metadata>
Created by iconfont
</metadata>
<defs>

<font id="iconfont" horiz-adv-x="1024" >
  <font-face
    font-family="iconfont"
    font-weight="500"
    font-stretch="normal"
    units-per-em="1024"
    ascent="896"
    descent="-128"
  />
    <missing-glyph />
    
    <glyph glyph-name="shuipingsuofang" unicode="&#58880;" d="M561.78125001 749.34375001q8.4375-0.84375001 18.14062499-8.01562501t17.71875-18.140625 13.07812501-24.890625 5.0625-27.421875q0-11.8125-5.0625-24.890625t-13.07812501-24.46875-17.71875-18.5625-18.14062499-8.015625l-157.78125001 0 0-525.65625001q-1.6875-21.9375-11.8125-37.546875t-39.65625001-15.60937499q-18.5625 0-34.17187499 12.234375t-17.296875 40.92187501l0 525.65624999-155.25 0q-15.1875 0-24.890625 6.75t-16.03125 17.71875001-9.28125 24.46874999-4.64062502 27q0 13.50000001 4.21875002 27.421875t11.390625 25.3125 17.296875 18.5625 21.9375 7.17187499l415.96875001 0zM890 593.25q-10.96875001-1.6875-13.50000001-7.59375001t-2.53124998-16.87499998q0-12.65625001 0.42187499-32.48437501t0.84375-41.76562499 0.42187499-42.1875l0-32.90625001q0.84375001-8.4375-1.68749998-16.875l0-2.53124998q0-9.28125001 0.42187499-35.43750001t0.421875-56.95312501 0.421875-58.640625 0.42187499-39.65624999q0-16.03125002 3.375-25.31250002t15.18750002-9.28124999l37.96874999 0q15.1875 0 19.40624999-8.01562501t-6.75-20.67187499q-10.125-12.65625001-23.625-30.375t-27.84374999-36.28124999-28.265625-36.28125001-24.89062501-31.21874999q-10.125-12.65625001-18.98437499-13.07812501t-19.82812501 11.39062501q-10.125 12.65625001-23.625 29.10937499t-27.84374999 34.17187499-28.265625 35.01562501-24.89062501 30.796875q-12.65625001 14.34375001-10.125 24.046875t18.5625 9.703125q9.28125001 0 24.46875001 0.421875t25.3125 1.265625q10.125 0 12.65624999 5.90625001t2.53125001 17.71874999l0 40.5q0 28.6875-0.421875 60.328125t-0.84375 60.32812501-0.42187501 41.34374999q0 7.59375001 2.53125 15.1875l0 4.21875001q0 8.4375-0.42187499 26.15624999t-0.84375 38.390625-0.42187501 40.921875l0 31.21875001q0 16.875-2.95312499 25.73437499t-14.765625 8.859375q-9.28125001 0-19.40625001 0.84375001t-19.40624999 0.84374999q-14.34375001-1.6875-18.984375 6.75t5.484375 21.9375q10.125 12.65625001 24.046875 29.953125t28.265625 35.859375 27.84374999 36.28124999 24.46875001 31.21875001q10.96875001 12.65625001 19.828125 13.078125t18.984375-11.390625q10.125-12.65625001 24.046875-29.109375t28.265625-34.17187499 28.265625-34.59375001 24.89062499-30.375q12.65625001-15.1875 10.125-24.890625t-18.5625-9.70312499q-9.28125001 0.84375001-24.46874999 0t-25.3125-0.84375001z"  horiz-adv-x="1055" />

    
    <glyph glyph-name="tuichu" unicode="&#58904;" d="M920.6837972 384c0-7.25097656-2.63671875-13.59558106-7.99255371-18.95141602L683.791097 136.1484375c-5.2734375-5.2734375-11.618042-7.99255372-18.95141601-7.99255372-7.33337403 0-13.67797852 2.63671875-18.95141602 7.99255372-5.2734375 5.2734375-7.99255372 11.618042-7.99255371 18.95141602L637.89571126 276.30651854999996 453.16060383 276.30651854999996c-7.25097656 0-13.59558106 2.63671875-18.951416 7.99255372s-7.99255372 11.618042-7.99255372 18.95141601L426.21663411 464.74951172c0 7.25097656 2.63671875 13.59558106 7.99255372 18.95141601 5.2734375 5.35583497 11.618042 7.99255372 18.951416 7.99255372l184.81750489-1e-8L637.97810872 612.90014648c0 7.25097656 2.63671875 13.59558106 7.99255372 18.95141602 5.2734375 5.35583497 11.618042 7.99255372 18.951416 7.99255372 7.33337403 0 13.67797852-2.71911622 18.95141603-7.99255372L912.69124349 402.95141602C917.96468099 397.67797852 920.6837972 391.33337403 920.6837972 384L920.6837972 384zM455.05574544-37.875L309.21223958-37.875c-52.81677247 0-102.50244141 20.59936523-139.82849122 57.92541504C132.05769856 57.37646484000004 111.45833333 107.06213377999995 111.45833333 159.87890625L111.45833333 608.12109375c0 52.81677247 20.59936523 102.50244141 57.92541504 139.82849122C206.70979817 785.27563477 256.39546711 805.875 309.21223958 805.875l145.84350586 0c43.6706543 0 79.1015625-35.4309082 79.1015625-79.1015625s-35.4309082-79.1015625-79.1015625-79.1015625L309.21223958 647.671875c-21.83532715 0-39.55078125-17.71545411-39.55078125-39.55078125l0-448.2421875c0-21.83532715 17.71545411-39.55078125 39.55078125-39.55078125l145.84350586 0c43.6706543 0 79.1015625-35.4309082 79.1015625-79.1015625S498.72639974-37.875 455.05574544-37.875z"  horiz-adv-x="1024" />

    
    <glyph glyph-name="xuanze" unicode="&#59069;" d="M148.75000001 749.64999999l693.09999999-230.69999999L657.25000001 421.84999999l-76.90000001-40.49999999 61.5-61.4L846.25000001 115.84999999000001l-63.40000001-63.6-204.19999999 204.5-61.49999999 61.60000001-40.5-77.00000001-96.80000002-184.3L148.75000001 749.64999999M117.15 825.34999999c-4.5 0-9.2-0.7-13.89999999-2.09999999-23-7.4-35.4-32-27.99999999-55.60000001l258.39999999-774.5c3.1-10.8 10.6-20.8 21.39999999-26.69999999 6.6-3.6 13.6-5.3 20.6-5.30000001 15.7 0 30.9 8.7 38.4 23.30000001l119.2 226.99999999 216.40000001-216.8 2.5-2.19999999c8.4-8.4 19.6-12.6 30.8-12.6s22.4 4.2 30.69999999 12.6l92.2 92.49999999c17.1 17.1 17.1 44.4 0 61.50000001l-218.89999999 218.6 226.69999999 119.19999999c10 5.6 17.4 13.6 21.10000002 25.2 7.8 23-5 47.5-27.30000001 54.9L130.25000001 823.25C126.05 824.64999999 121.65 825.34999999 117.15 825.34999999L117.15 825.34999999z"  horiz-adv-x="1024" />

    
    <glyph glyph-name="shuaxin-zuo" unicode="&#58923;" d="M511.552304 671.225677L511.552304 831.486684l-228.944296-228.944296 228.944296-228.943272L511.552304 579.647959c151.10344 0 274.733155-123.629715 274.733155-274.732132 0-151.104463-123.628692-274.734178-274.733155-274.734178-151.104463 0-274.734178 123.628692-274.734178 274.734178L145.24143 304.91582700000004c0-201.471594 164.840302-366.311897 366.311897-366.311897 201.470571 0 366.310873 164.840302 366.310873 366.311897C877.863177 506.385375 713.022874 671.225677 511.552304 671.225677L511.552304 671.225677z"  horiz-adv-x="1024" />

    
    <glyph glyph-name="biaochi" unicode="&#58905;" d="M517.09033387 509.5834112c-98.86174827 0-182.8088768-74.28056853-195.30139947-172.7351776-1.22796693-9.83574613 1.79992747-19.54160107 8.30433493-26.9279616 6.5349696-7.52498453 15.96576-11.60511147 25.8069632-11.60511147l322.3147104 0c9.83574613 0 19.20104427 4.08012693 25.80150614 11.60511147 6.56989867 7.38636053 9.5705056 17.22538133 8.3087008 26.9279616C699.89921173 435.40435413 615.8462048 509.5834112 517.09033387 509.5834112L517.09033387 509.5834112zM401.308832 368.23508159999994c20.69971093 44.12277973 65.26346773 73.84068373 115.78150187 73.84068373 50.48419733 0 95.04686293-29.75392427 115.7116448-73.84068373L401.308832 368.23508159999994 401.308832 368.23508159999994zM401.308832 368.23508159999994M1008.49452373 368.23508159999994l-82.48339093 0c-26.99781973 202.18347413-200.71864533 358.1298816-408.92079787 358.1298816-208.2731008 0-381.9906528-155.94640747-408.98628906-358.1298816L10.46589867 368.23508159999994c-19.02749227 0-35.84464213-16.7472928-35.84464214-35.77805973l0-275.30047574c0-19.03294933 16.81824213-34.4889664 35.84464214-34.4889664l133.27976533 0 0 0 40.43887787 0 0 0 106.62686826 0 0 0 29.41118507 0 0 0 106.58539093 0 0 0 29.41336747 0 0 0 106.61922773 0 0 0 29.38280534 0 0 0 106.58429866 0 0 0 29.44829654 0 0 0 106.58539093 0 0 0 40.4465184 0 0 0L1008.52945173 22.667579730000057c19.12900373 0 35.84464213 15.45601707 35.84464214 34.4889664L1044.37409493 332.45593067000004C1044.30860267 351.4877888 1027.48926933 368.23508159999994 1008.49452373 368.23508159999994L1008.49452373 368.23508159999994zM974.45090027 92.52637440000001l-106.17715947-0.30562773-0.06658347 66.4859776-33.32976533 0 0-66.18034987-106.65743147 0 0 66.18034987-29.37516373 0 0-66.18034987-106.590848 0 0 66.18034987-29.4428384 0 0-66.18034987-106.5897568 0 0 66.18034987-29.41336747 0 0-66.18034987-106.58539093 0 0 66.18034987L290.77429867 158.70672427l0-66.18034987-106.62031894 0 0 66.18034987L150.89516267 158.70672427l-0.92343147-66.18034987L44.47459307 92.52637440000001 44.47459307 298.3806528l94.94971733 0c18.2765216 0 33.38979947 14.12435413 34.37981333 32.40633387 0.47590613 9.0596704 1.327296 17.94142293 2.52033494 26.82535786l63.66110613-8.4058464c0.2346784 1.6995072 1.76936427 11.19688 5.47837227 25.464224l-63.01274027 16.54208534c7.968144 33.87552853 20.90491733 65.77211947 37.99276693 94.91478826l56.8499808-31.1521696c4.35628267 7.968144 9.2288576 16.06836373 14.60462614 24.10199894l-52.8309792 35.472432c19.87779093 27.301264 43.6741632 51.54079467 70.53226666 71.8988576l37.38042027-46.9803968c6.8449632 5.38122667 14.093792 10.58999147 21.82070827 15.4199968l-31.6564544 50.45363413c28.18321707 17.32798507 59.02866773 30.70791787 91.74172053 39.3539008l14.53804267-58.55494507c8.81516907 2.21579947 18.00691413 4.05065493 27.57632853 5.51548374l-9.26378667 60.05361066c18.0429344 2.92419947 36.46244693 4.4577952 55.28473174 4.4577952 15.32285013 0 30.36517867-1.05441493 45.17937813-2.99842346l-7.11675307-59.40197014c9.19283733-1.1220896 18.0080064-2.65786773 26.44987307-4.59532693l13.44542507 58.07467307c33.05906667-7.690896 64.30838187-20.15285547 92.93912533-36.5945216l-33.774016-52.21754134c7.59702507-4.93806613 14.8447616-10.21668907 21.68535893-15.79875626l40.54693867 49.7703392c27.9125184-19.98476053 52.86699947-44.08785173 73.8002976-71.42404374l-57.76795413-40.37447786c5.71741653-8.16571093 10.9622016-16.44057387 15.8282272-24.54079254l61.6188608 36.42205974c17.90540267-29.13721173 31.65754667-61.20735467 40.30898666-95.35358187l-64.54851733-22.2966144c4.35628267-12.6300544 7.05017067-22.36756373 8.5139072-27.880864l62.94069867 16.307408c1.60236053-10.72206613 2.72445013-21.44413227 3.37281706-32.44344533 0.8874112-18.28197973 16.06836373-32.4052416 34.31432214-32.4052416l79.79496106 0L974.45090027 92.52637440000001 974.45090027 92.52637440000001 974.45090027 92.52637440000001zM974.45090027 92.52637440000001"  horiz-adv-x="1024" />

    
    <glyph glyph-name="arrow-right-copy-copy-copy" unicode="&#58884;" d="M357.957 728.824l-49.463-48.973 294.308-296.327-296.782-293.831 49.044-49.381 346.239 342.809z"  horiz-adv-x="1024" />

    
    <glyph glyph-name="iconset" unicode="&#58909;" d="M174.5 605.4l37.8 0 0 37.8-37.8 0L174.5 605.4zM174.5 676.5l37.8 0 0 37.8-37.8 0L174.5 676.5zM212.3 309.29999999999995l-37.8 0 0-37.8 37.8 0L212.3 309.29999999999995zM212.3 238.20000000000005l-37.8 0 0-37.8 37.8 0L212.3 238.20000000000005zM212.3 91.5l-37.8 0 0-37.8 37.8 0L212.3 91.5zM174.5 458.7l37.8 0 0 37.8-37.8 0L174.5 458.7zM212.3 162.60000000000002l-37.8 0 0-37.8 37.8 0L212.3 162.60000000000002zM174.5 529.8l37.8 0 0 37.8-37.8 0L174.5 529.8zM797.3 529.8l37.8 0 0 37.8-37.8 0L797.3 529.8zM797.3 605.4l37.8 0 0 37.8-37.8 0L797.3 605.4zM797.3 458.7l37.8 0 0 37.8-37.8 0L797.3 458.7zM834.2 785.4L174.5 785.4c-41.4 0-74.7-33.3-74.7-74.7l0-659.7c0-41.4 33.3-74.7 74.7-74.7l659.7 0c41.4 0 74.7 34.2 74.7 74.7L908.9 714.3C906.2 755.7 872 785.4 834.2 785.4zM245.6 16.799999999999955l-71.1 0c-18.9 0-37.8 15.3-37.8 37.8L136.7 365.1l108.9 0L245.6 16.799999999999955zM245.6 402.9L136.7 402.9 136.7 714.3c0 18.9 15.3 37.8 37.8 37.8l74.7 0 0-348.3L245.6 403.8zM721.7 16.799999999999955L283.4 16.799999999999955 283.4 751.2l439.2 0L722.6 16.799999999999955zM868.4 53.700000000000045c0-18.9-15.3-37.8-37.8-37.8l-74.7 0L755.9 365.1l108.9 0 0-311.4L868.4 53.700000000000045zM868.4 402.9L759.5 402.9 759.5 751.2l74.7 0c18.9 0 37.8-15.3 37.8-37.8l0-311.4L868.4 402zM797.3 676.5l37.8 0 0 37.8-37.8 0L797.3 676.5zM834.2 238.20000000000005l-37.8 0 0-37.8 37.8 0L834.2 238.20000000000005zM411.2 238.20000000000005c3.6 0 7.2 0 11.7 3.6l0 0 202.5 127.8 0 0c3.6 3.6 7.2 7.2 7.2 15.3 0 7.2-3.6 11.7-7.2 15.3l0 0L422 526.2l0 0c0 3.6-3.6 3.6-11.7 3.6-11.7 0-18.9-7.2-18.9-18.9l0-254.7C392.3 245.39999999999998 403.1 238.20000000000005 411.2 238.20000000000005zM429.2 477.6L579.5 384 429.2 290.4 429.2 477.6zM834.2 309.29999999999995l-37.8 0 0-37.8 37.8 0L834.2 309.29999999999995zM834.2 91.5l-37.8 0 0-37.8 37.8 0L834.2 91.5zM834.2 162.60000000000002l-37.8 0 0-37.8 37.8 0L834.2 162.60000000000002z"  horiz-adv-x="1024" />

    
    <glyph glyph-name="iconset0474" unicode="&#59233;" d="M512 746.54882787C310.95019506 746.54882787 149.45117213 585.0498049400001 149.45117213 384s161.49902369-362.54882787 362.54882787-362.54882787 362.54882787 161.49902369 362.54882787 362.54882787S713.04980494 746.54882787 512 746.54882787zM512 54.41015600000003C330.72558568 54.41015600000003 182.410156 202.72558568 182.410156 384S330.72558568 713.589844 512 713.589844L512 54.41015600000003z"  horiz-adv-x="1024" />

    
    <glyph glyph-name="xiazai" unicode="&#58939;" d="M1018.92999054-127.01142699000002L0.98449749-127.01142699000002 0.98449749 220.71809707 143.69912832 220.71809707 143.69912832-11.084897849999948 876.27124622-11.084897849999948 876.27124622 220.71809707 1018.92999054 220.71809707ZM786.52156245 553.2116571L509.92930133 66.85417813000004 233.28231765 553.2116571ZM424.26745742 893.31854222l171.26780245 0 0-341.62861852-171.26780245 0 0 341.62861852Z"  horiz-adv-x="1024" />

    
    <glyph glyph-name="win8" unicode="&#59148;" d="M559.548434 833.634604l399.156956 0 0-298.775734L559.548434 534.85887 559.548434 833.634604 559.548434 833.634604zM559.548434-62.685435 559.548434 434.472532l399.156956 0 0-497.157967L559.548434-62.685435 559.548434-62.685435zM62.385351-62.685435 62.385351 236.084159l399.161049 0 0-298.769594L62.385351-62.685435 62.385351-62.685435zM62.385351 336.472544 62.385351 833.634604l399.161049 0 0-497.163083L62.385351 336.47152 62.385351 336.472544zM62.385351 336.472544"  horiz-adv-x="1024" />

    
    <glyph glyph-name="chuangkouwindow33" unicode="&#58962;" d="M825.0176 754.8384L198.9824 754.8384c-32.0736 0-58.176-26.0928-58.176-58.1664l0-625.344c0-32.0736 26.1024-58.176 58.176-58.176l626.0352 0c32.0736 0 58.176 26.1024 58.176 58.176L883.1936 696.672C883.1936 728.7552000000001 857.0912 754.8384 825.0176 754.8384zM785.5808 688.6272c13.776 0 24.9312-11.1648 24.9312-24.9312 0-13.776-11.1552-24.9312-24.9312-24.9312s-24.9312 11.1648-24.9312 24.9312C760.6496 677.4624 771.8048 688.6272 785.5808 688.6272zM696.2432 688.6272c13.776 0 24.9312-11.1648 24.9312-24.9312 0-13.776-11.1552-24.9312-24.9312-24.9312s-24.9312 11.1648-24.9312 24.9312C671.312 677.4624 682.4672 688.6272 696.2432 688.6272zM556.8032 79.64160000000004L207.2864 79.64160000000004 207.2864 576.8736l349.5168 0L556.8032 79.64160000000004zM816.7136 79.64160000000004L582.4064 79.64160000000004 582.4064 576.8736l234.3072 0L816.7136 79.64160000000004zM790.4 432L612.8 432 612.8 542.4 790.4 542.4 790.4 432zM790.4 278.4L612.8 278.4 612.8 388.8 790.4 388.8 790.4 278.4zM790.4 122.39999999999998L612.8 122.39999999999998l0 110.4L790.4 232.79999999999995 790.4 122.39999999999998z"  horiz-adv-x="1024" />

    
    <glyph glyph-name="chuangkou" unicode="&#58971;" d="M845.88544 779.56096L178.11456 779.56096c-34.21184 0-62.0544-27.82208-62.0544-62.04416L116.06016 50.48320000000001c0-34.2016 27.84256-62.04416 62.0544-62.04416l667.77088 0c34.21184 0 62.0544 27.84256 62.0544 62.04416L907.93984 717.5168C907.93984 751.73888 880.09728 779.56096 845.88544 779.56096zM803.81952 708.93568c14.6944 0 26.59328-11.90912 26.59328-26.60352 0-14.68416-11.89888-26.59328-26.59328-26.59328s-26.59328 11.90912-26.59328 26.59328C777.22624 697.02656 789.12512 708.93568 803.81952 708.93568zM708.52608 708.93568c14.6944 0 26.59328-11.90912 26.59328-26.60352 0-14.68416-11.89888-26.59328-26.59328-26.59328s-26.59328 11.90912-26.59328 26.59328C681.9328 697.02656 693.83168 708.93568 708.52608 708.93568zM837.02784 59.35104000000001L186.97216 59.35104000000001 186.97216 589.7318399999999l650.04544 0L837.0176 59.35104000000001zM728.96512 273.02912000000003l-0.01024 158.37184 79.18592-79.18592L728.96512 273.02912000000003zM295.04512 273.02912000000003l-79.18592 79.18592 79.17568 79.17568L295.04512 273.02912000000003z"  horiz-adv-x="1024" />

    
    <glyph glyph-name="nxtFrm" unicode="&#59015;" d="M116.4921875 384c0-218.42817799 177.07963451-395.5078125 395.5078125-395.5078125C730.42817799-11.5078125 907.5078125 165.57182201 907.5078125 384c0 218.42817799-177.07963451 395.5078125-395.5078125 395.5078125C293.57182201 779.5078125 116.4921875 602.42817799 116.4921875 384zM482.40882464 195.95401301000004l-51.05646272 51.0564627L571.14639582 386.87642017l-152.30646273 152.30646272 50.84073174 50.84073175L673.07954517 386.62473352 482.40882464 195.95401301000004z"  horiz-adv-x="1024" />

    
    <glyph glyph-name="zanting" unicode="&#58933;" d="M512 774.06643535c-215.51188271 0-390.06643535-174.55455175-390.06643535-390.06643535s174.55455175-390.06643535 390.06643535-390.06643535 390.06643535 174.55455175 390.06643535 390.06643535S727.51098359 774.06643535 512 774.06643535zM472.99344629 227.97378604000005l-78.01310742 0L394.98033974 540.02621396l78.01310743 0L472.99344629 227.97378604000005zM629.01966026 227.97378604000005l-78.01310743 0L551.00655371 540.02621396l78.01310742 0L629.01966026 227.97378604000005z"  horiz-adv-x="1024" />

    
    <glyph glyph-name="icon1" unicode="&#58896;" d="M501.90206862 606.7690951c-102.04696803 0-184.75965326-82.75110685-184.75965326-184.81903274 0-26.95808797 5.91578339-52.51552825 16.31293781-75.69082141 71.74386119-20.4613211 136.27607837-57.76999197 188.80790756-107.89988011 17.56688384 1.97348011 34.4142336 6.32794339 50.15084487 12.77813874 26.60530631 71.12562005 65.02471453 136.46120163 112.70958307 193.8190336C673.78229021 536.09871359 596.16456021 606.7690951 501.90206862 606.7690951zM724.95887929 615.19276941l-29.27619868 108.1897893-110.61385103-18.24450333-83.16792377 75.19366714-83.14696704-75.19366714-110.59289429 18.24450333-29.29715655-108.1897893-102.93066866-44.33519161 33.85886492-106.91488654-62.60065166-93.02601045 12.10051812-10.02690901c16.49806109 1.97348011 33.1812443 3.28564053 50.19275946 3.28564053 19.17011854 0 37.92691086-1.47632583 56.43687368-3.77813789-5.11591197 19.68357262-7.91022023 40.26714453-7.91022024 61.55278678 0 134.68914461 109.19573959 243.90584206 243.88954226 243.90584206 108.3539547 0 200.04568291-70.67038151 231.8728522-168.38384299 28.20737593 27.44592725 58.77594339 52.34670592 91.44373362 74.53816946L724.95887929 615.19276941zM318.0249509 59.864779649999946c45.23984896 50.08680846 100.21669661 91.17827413 162.26197959 119.94218383-69.35822109 79.42704469-171.11527993 129.80026937-284.83314119 129.80026936-42.09741597 0-82.34243869-7.51901696-120.14826383-20.2971557l0-229.44529749L318.0249509 59.864779649999946zM948.69447339 59.864779649999946l0 470.56148821C783.01994553 472.32328817 652.84477269 338.70296632 599.7366181 170.64279722000003c-82.13635869-15.32445127-155.23545885-55.14101419-213.01010887-110.77801757L948.69447339 59.864779649999946z"  horiz-adv-x="1024" />

    
    <glyph glyph-name="x" unicode="&#58897;" d="M569.02728271 386.59552002L877.59753418 78.02526854999996 820.57025146 23.59350586000005 512 332.16375731999995 198.23870849 13.211425780000013 141.21142578 72.83422852000001l313.76129151 318.95233154L146.40246582 700.35681153 203.42974854 754.78857422 512 446.21832276 820.57025146 754.78857422 877.59753418 695.16577148 569.02728271 386.59552002z"  horiz-adv-x="1024" />

    
    <glyph glyph-name="caidan" unicode="&#58898;" d="M-1.79845006 837.57448078l137.67896064 0 0-137.16795505-137.67896064 0 0 137.16795505ZM277.86306105 837.57448078l737.24283335 0 0-137.16795505-737.24283335 0 0 137.16795505ZM-1.79845006 460.74329657l137.67896064 0 0-137.16795506-137.67896064 0 0 137.16795506ZM277.86306105 460.74329657l737.24283335 0 0-137.16795506-737.24283335 0 0 137.16795506ZM-1.79845006 107.70115583999996l137.67896064 0 0-136.9140827-137.67896064 0 0 136.9140827ZM277.86306105 107.70115583999996l737.24283335 0 0-136.9140827-737.24283335 0 0 136.9140827Z"  horiz-adv-x="1024" />

    
    <glyph glyph-name="ai238" unicode="&#59106;" d="M27.50246106 627.52084285l242.3374374 0 0 242.33037164-242.3374374 0L27.50246106 627.52084285zM390.95421479-99.37842683999997l242.33602344 0 0 242.33037165-242.33602344 0L390.95421479-99.37842683999997zM27.50246106-99.37842683999997l242.3374374 0 0 242.33037165-242.3374374 0L27.50246106-99.37842683999997zM27.50246106 264.06767513l242.3374374 0 0 242.33602342-242.3374374 0L27.50246106 264.06767513zM390.95421479 264.06767513l242.33602344 0 0 242.33602342-242.33602344 0L390.95421479 264.06767513zM754.40738114 627.52084285l242.33602341 0 0 242.33037164-242.33602341 0L754.40738114 627.52084285zM390.95421479 627.52084285l242.33602344 0 0 242.33037164-242.33602344 0L390.95421479 627.52084285zM754.40738114 264.06767513l242.33602341 0 0 242.33602342-242.33602341 0L754.40738114 264.06767513zM754.40738114-99.37842683999997l242.33602341 0 0 242.33037165-242.33602341 0L754.40738114-99.37842683999997z"  horiz-adv-x="1024" />

    
    <glyph glyph-name="ai249" unicode="&#59117;" d="M511.99945387 759.30849813c-209.42445227 0-377.00745707-167.5731808-377.00745707-377.0030912 0-209.42881813 167.5819136-377.002 377.00745707-377.002 33.5655008 0 62.83366613 29.3915072 62.83366613 62.8347584 0 16.8138592-4.16962773 29.3915072-16.68724267 41.90475627-8.475696 12.58092267-16.8149504 25.1629376-16.8149504 41.85018027 0 33.5655008 29.33256533 62.83366613 62.8347584 62.83366613l75.40694934 0c117.32807787 0 209.4320928 92.16732373 209.4320928 209.48776107C889.00581973 608.5437184 721.48612373 759.30849813 511.99945387 759.30849813M281.64609173 382.30540693c-33.55786027 0-62.82711787 29.3915072-62.82711786 62.83366614 0 33.50219307 29.26816533 62.83039253 62.82711786 62.83039253 33.5109248 0 62.83366613-29.32819947 62.83366614-62.83039253C344.48084907 411.69691413 315.15810773 382.30540693 281.64609173 382.30540693M407.31451627 549.8840448000001c-33.5655008 0-62.83366613 29.33256533-62.83366614 62.8347584 0 33.5011008 29.26816533 62.83366613 62.83366614 62.83366613 33.50219307 0 62.8347584-29.33256533 62.8347584-62.83366613C470.15036587 579.2166101299999 440.81780053 549.8840448000001 407.31451627 549.8840448000001M616.74660907 549.8840448000001c-33.5109248 0-62.83366613 29.33256533-62.83366614 62.8347584 0 33.5011008 29.32274133 62.83366613 62.83366614 62.83366613 33.50219307 0 62.82711787-29.33256533 62.82711786-62.83366613C679.57372693 579.2166101299999 650.24989333 549.8840448000001 616.74660907 549.8840448000001M742.40739307 382.30540693c-33.5011008 0-62.83366613 29.3915072-62.83366614 62.83366614 0 33.50219307 29.33256533 62.83039253 62.83366614 62.83039253 33.5109248 0 62.83366613-29.32819947 62.83366613-62.83039253C805.24215147 411.69691413 775.91831787 382.30540693 742.40739307 382.30540693"  horiz-adv-x="1024" />

    
    <glyph glyph-name="browse" unicode="&#59104;" d="M662.257 513.543c0-32.885-25.799-59.2-58.201-59.2-32.371 0-58.686 26.315-58.686 59.2 0 32.371 26.315 58.686 58.686 58.686 4.058 0 7.6-1.514 11.657-2.028-29.343 20.743-65.285 33.401-103.715 33.401-100.201 0-181.142-81.971-181.142-183.172 0-100.657 80.944-182.629 181.142-182.629 100.171 0 181.115 81.971 181.115 182.629 0 38.971-12.657 75.399-33.401 104.742 1.029-4.059 2.544-7.601 2.544-11.63zM1014.371 438.142c-84.485 154.829-283.827 311.142-502.371 311.142-218.571 0-417.915-156.314-501.886-311.142l-10.114-17.713 10.114-17.686c83.972-154.315 283.315-311.142 501.886-311.142 218.544 0 417.885 156.829 502.371 311.142l9.629 17.686-9.629 17.713zM512 164.429c-180.114 0-350.629 129.028-428.542 256 77.914 127.514 248.428 256 428.542 256 180.085 0 350.599-128.486 428.515-256-77.915-126.972-248.43-256-428.515-256z"  horiz-adv-x="1024" />

    
    <glyph glyph-name="daoqiang" unicode="&#58891;" d="M487.511771 831.503057l-423.022503-203.535603 0-472.575082 423.027619 189.595103L487.516888 831.503057 487.511771 831.503057 487.511771 831.503057zM445.886745 371.94647599999996L106.110201 219.65497800000003 106.110201 601.824027l339.776544 163.474189L445.886745 371.94647599999996 445.886745 371.94647599999996zM501.86671 307.423951L93.7108 124.60722799999996l417.531442-187.214892 417.438321 187.214892L520.628006 307.423951 501.86671 307.423951 501.86671 307.423951zM511.243265-17.010163000000034L195.478602 124.58880899999997l315.287803 141.228535 0.964978 0 315.209008-141.228535L511.243265-17.010163000000034 511.243265-17.010163000000034zM534.872428 831.53171l0-486.510466 423.034782-189.628872L957.907211 627.967454 534.872428 831.53171 534.872428 831.53171zM916.287301 219.65497800000003L576.496431 371.96796600000005 576.496431 765.298216l339.79087-163.475212L916.287301 219.65497800000003 916.287301 219.65497800000003zM268.782118 405.589714L151.076322 472.088244 180.415534 479.950306 260.920056 434.929949 348.095511 585.922872 377.434723 593.783911 268.782118 405.589714Z"  horiz-adv-x="1024" />

    
    <glyph glyph-name="suofang" unicode="&#58942;" d="M476.936925 349.35085200000003c-4.836145 4.926196-11.531638 8.014534-18.98233 8.014534l-239.052514-0.010233c-14.71412 0-26.644847-11.92561-26.644847-26.643823 0-14.72026 11.930727-26.637684 26.644847-26.637684l176.615487 0L214.360647 122.91570300000001l37.682227-37.686321 180.862207 180.863231-0.841158-175.191044c0-14.70798 11.929704-26.643823 26.644847-26.643823s26.64587 11.935843 26.64587 26.643823L485.354642 330.71133C485.354642 338.61125400000003 482.088248 344.97724100000005 476.936925 349.35085200000003zM831.741743 810.3236890000001l-639.48451 0c-58.862619 0-106.58041-47.712675-106.58041-106.58041l0-639.485533c0-58.867736 47.717791-106.581434 106.58041-106.581434l639.48451 0c58.863642 0 106.581434 47.713698 106.581434 106.581434L938.323177 703.743278C938.323177 762.6110140000001 890.605386 810.3236890000001 831.741743 810.3236890000001zM885.031437 64.257745c0-29.430286-23.856337-53.289694-53.289694-53.289694l-639.48451 0c-29.429263 0-53.290717 23.859407-53.290717 53.289694L138.966517 703.743278c0 29.437449 23.861454 53.290717 53.290717 53.290717l639.48451 0c29.434379 0 53.289694-23.853267 53.289694-53.290717L885.031437 64.257745zM805.09792 463.936587l-176.62265-0.008186L809.638329 645.092483l-37.684274 37.678134-180.859138-180.861184 0.841158 175.188998c0 14.719236-11.93175 26.644847-26.647917 26.644847-14.712073 0-26.643823-11.92561-26.643823-26.644847l0-239.807714c0-7.892761 3.2623-14.259772 8.414647-18.639522 4.835122-4.927219 11.535731-8.015557 18.987447-8.015557l239.051491 0.00921c14.718213 0 26.643823 11.93482 26.643823 26.644847C831.741743 452.009953 819.816133 463.936587 805.09792 463.936587z"  horiz-adv-x="1024" />

    
    <glyph glyph-name="yonghuxinxi" unicode="&#59359;" d="M550.27037867 338.20361842c9.75446357-1.65097017 19.43790592-3.70129351 29.05614677-5.98796971 17.63441323-4.19728384 34.96727325-9.61125603 51.93221689-15.9345425 3.81772345-1.42160441 7.60284615-2.92587293 11.378655-4.45342834 0.04191459-0.01629981 0.07451534-0.03027171 0.11526486-0.04540758 0.34695965-0.14902955 0.77774962-0.33764579 1.34010311-0.57865443 2.24359651-0.96520078 4.47089323-1.9676581 6.69935388-2.9712805 8.91384263-4.0144896 17.65886293-8.3910747 26.28163243-12.97606883 15.20685739-8.08952149 34.35019719-3.88758073 43.29664057 11.26106225 8.47141091 14.33945771 3.83169536 34.85200839-11.35071232 42.92173711-26.26766051 13.97386923-53.75899534 25.48991203-82.04554354 34.42005446 24.92406443 15.18357163 47.44269483 34.23143936 66.0737445 56.087585 42.67956338 50.06468779 66.47426162 113.17413661 66.71992832 178.82407708-0.2456667 65.98642233-24.27671666 128.32976441-66.71992832 178.82640612-39.68499712 47.21914994-97.87646407 80.37012366-158.75163023 91.39832604-65.84088576 11.93751666-134.0813824 0.78706347-192.06327637-32.62471168-56.08292807-32.31617365-97.85201323-83.84205141-120.71643932-143.6483948-22.68745387-59.31268323-22.20310642-128.5614592 0-187.89975723 21.84916082-58.40103993 62.61113059-108.13506674 116.04412302-140.84593664-39.33337941-12.42186411-77.04373248-29.87814002-111.83053938-52.02186695-64.82911232-41.26727395-119.1481344-98.15589433-157.37426944-164.45551161-40.72936903-70.64942365-61.81941021-151.86482517-62.04761201-233.1302912-0.05122845-17.10931627 14.4314368-31.38124459 31.64088206-31.38124459 17.28978147 0 31.6012965 14.27309341 31.64553898 31.37193074 0.03143566 9.63919872 0.34463175 19.25976861 0.95122888 28.87335254 0.30621013 4.80388096 0.73001301 9.6007771 1.18874566 14.39068728 0.23285874 2.39495509 0.49598919 4.78991019 0.7661056 7.18020722 0.10362197 0.90931427 0.58447645 4.51047879 0.80219933 6.18473586 2.80012914 18.97335239 6.95433443 37.7394597 12.20064825 56.19586503 2.63596373 9.26313131 5.65148786 18.41914766 8.89637888 27.49249877 1.62302749 4.53958656 3.35899079 9.03725853 5.13337685 13.51630166 0.45756757 1.15614493 0.94191502 2.302976 1.4157824 3.45329891 0.26895246 0.5914624 2.16093127 5.04721863 2.6173349 6.07296285 7.65756871 17.13260203 16.54579655 33.70052039 26.33169693 49.72238506 4.69327303 7.68551139 9.68693533 15.19754354 14.84709091 22.58383076 2.57774933 3.69663659 5.24165689 7.33389483 7.93234205 10.94786617 0.66131968 0.88835755 1.33893917 1.7615781 2.00957269 2.64178574-0.14902955-0.23635171 3.38576953 4.28809899 4.14372636 5.22535595 11.80711595 14.58046749 24.64463303 28.32031289 38.22147812 41.29638172 6.47930197 6.20219961 13.20659854 12.15407559 20.05032505 17.94760818 3.42884921 2.90142322 6.91940579 5.72949618 10.42859122 8.52263936 0.43777479 0.34695965 1.52755541 1.19223865 2.4194048 1.88615794 1.81979363 1.36455395 3.64307911 2.72561493 5.47917254 4.07154005 15.09159253 11.05381717 30.96326258 21.04929053 47.34140075 30.13195549 7.20815104 4.00051769 14.55485269 7.7413979 21.97839759 11.32975558 3.46610688 1.67542101 6.97762019 3.28214755 10.49262648 4.8702464 2.16209635 0.97684366 4.34282041 1.91875869 6.51888754 2.86183766 0.35860253 0.14437262 0.82548509 0.33182379 1.44605412 0.58447644 16.36998827 6.64346738 33.19055929 12.18667634 50.24631694 16.84152776 17.05342976 4.66183737 34.40957554 8.17218674 51.89961614 10.78602979 0.51694706 0.07335026 0.93958599 0.13505877 1.29003862 0.18512327 1.54851214 0.19094414 3.09702429 0.38887424 4.64903054 0.56934059 4.79456711 0.55653262 9.6007771 0.99780039 14.40698709 1.40413952 9.72652089 0.82082816 19.48447744 1.24230315 29.23894215 1.4239323 18.14320925 0.34346667 36.29922645-0.57050453 54.34812871-2.40892701 1.33428224-0.13855061 7.92302819-0.95821483 9.12923762-1.07930168C542.37878613 339.49132913999995 546.32691143 338.86959502 550.27037867 338.20361842L550.27037867 338.20361842zM565.94761159 422.92354845C571.26843961 425.22885234 568.06080626 423.80724793 565.94761159 422.92354845L565.94761159 422.92354845 565.94761159 422.92354845zM269.58794866 645.98850787C269.22585315 643.10105657 269.36906069 644.31658098 269.58794866 645.98850787L269.58794866 645.98850787 269.58794866 645.98850787zM522.76041501 410.06041657c-3.51849927-0.72069917-7.05795641-1.32147541-10.61254941-1.88382891-0.26429554-0.04191459-0.5996123-0.09197909-0.96403683-0.14437262-1.66843506-0.19443712-3.33687011-0.37257443-5.00646912-0.53557589-15.26856477-1.51707648-30.68266723-1.46002603-45.9686969-0.16649444-1.4972837 0.12457984-6.31164359 0.71022023-8.08020764 0.9058213-2.2715392 0.35627463-4.53842261 0.73699897-6.79715498 1.14683108-7.59935431 1.37619683-15.11604224 3.19133241-22.54890212 5.28124245-6.78434702 1.90595072-13.4674011 4.16817607-20.0596389 6.64928939-1.34243214 0.50763321-2.67787833 1.04088007-4.01332452 1.57412693-3.64191517 1.59391971-7.23609373 3.3065984-10.79534364 5.06468352-12.83984611 6.35006521-25.03234333 13.94825443-36.55304306 22.4185014-1.11772331 0.88369949-2.22962461 1.77322098-3.33221205 2.67671439-2.66390755 2.16558933-5.25912064 4.4184997-7.82639104 6.70517475-5.57464462 4.93195378-10.85821611 10.17826759-15.95433529 15.59223979-3.71642937 3.95278222-7.26287246 8.05575794-10.69172167 12.25653362-0.07218631 0.16998741-3.97140992 5.23699883-4.9785253 6.6481243-2.34139762 3.26235477-4.56403627 6.60620971-6.73893945 9.97451548-3.73389426 5.80401038-7.16507136 11.79430912-10.39249749 17.89288676-1.62302749 3.05627477-3.14708992 6.16144896-4.63040171 9.28991004-0.73932686 1.54152619-1.43790421 3.10401024-2.13997454 4.66183737-0.07335026 0.18046521-0.1478656 0.36442453-0.23169479 0.56934059-5.52923705 13.56403712-9.65549853 27.66830706-12.63143709 41.99728696-0.72302706 3.48822755-1.32729629 7.00323499-1.89430784 10.52639119-0.02910777 0.18163029-0.06170738 0.39469625-0.09663601 0.62522595-0.13855061 1.16662386-0.28525227 2.32975474-0.40750308 3.4963786-0.85459285 7.85666275-1.23298816 15.74592626-1.32031033 23.64217572-0.08150016 7.31875897 0.23751566 14.63635285 0.81267826 21.92949702 0.22703787 2.90840917 0.54488974 5.80866845 0.89185052 8.7054336 0.04307854 0.30970197 0.08499314 0.59495424 0.11992292 0.82664904 0.35860253 2.35420445 0.78124146 4.69210909 1.21552441 7.03234162 2.65575651 14.41630094 6.79249693 28.55317163 12.02600391 42.24761059 0.49948217 1.2993536 1.02574421 2.58939221 1.54967723 3.87826688 1.38551069 3.12496811 2.85950862 6.20336355 4.37309212 9.26429525 3.31707619 6.70750379 7.00789191 13.22057045 10.92458041 19.59625046 3.60116451 5.85523997 7.51203214 11.5183707 11.6021999 17.05925063 0.18279424 0.24683065 0.42613191 0.56934059 0.68926236 0.91513628 0.5914624 0.73234205 1.17477376 1.47166891 1.77322098 2.19935289 2.52884878 3.10284629 5.16830549 6.11254955 7.85666275 9.090816 8.61578354 9.55886251 18.08150187 18.34929038 28.11772587 26.43881188 0.45756757 0.29223822 5.28706333 3.94696021 6.66558919 4.91798186 2.82341603 1.99210894 5.70621042 3.88758073 8.60530461 5.751618 6.31047965 4.06222507 12.84799602 7.77050567 19.49379242 11.23661141 3.09120341 1.60556259 6.22082845 3.11216014 9.37373924 4.590815 1.53570531 0.71953408 3.08654649 1.40646855 4.64553756 2.09689487 6.7377755 2.71164302 13.60828075 5.07749035 20.55562923 7.1895222 6.80064797 2.06313131 13.71306667 3.76300203 20.66390812 5.2323419 3.51849927 0.74049195 7.04747747 1.3657179 10.58693461 1.9595082 0.41448903 0.06752939 0.82664903 0.12341475 1.23997412 0.18861624 1.33777522 0.17348039 3.67800775 0.48318237 4.70724494 0.5914624 15.25343005 1.62768441 30.66171051 1.68473486 45.95239709 0.50064726 2.11203072-0.16067243 4.21707662-0.37141049 6.31979349-0.59728327 0.08033621-0.05937949 6.79831893-0.97102165 8.61578354-1.28771072 7.61914709-1.32380331 15.15562894-3.09003947 22.61060949-5.12173397 6.80530489-1.85239325 13.50582272-4.07503303 20.11668935-6.5095737 1.23881017-0.45291065 4.90517504-1.95368733 6.7633903-2.70465706 2.73143581-1.22018133 5.44540786-2.47645525 8.13376512-3.7769728 12.97839673-6.30815061 25.30828174-13.88189013 36.96636814-22.34165817 0.25032363-0.18279424 0.57632654-0.42380288 0.92445013-0.68460544 0.73699897-0.58564039 1.48098275-1.16429483 2.21565383-1.75459214 2.67787833-2.15278137 5.29754226-4.38706403 7.8834415-6.65161728 5.60375239-4.89935303 10.92574435-10.10724523 16.0591212-15.49094571 4.55239339-4.77128135 8.85213525-9.76377856 12.99236864-14.88434745 0.96520078-1.27723179 1.91177273-2.56843435 2.85368662-3.86080199 2.35886137-3.24954795 4.60245789-6.57710307 6.80181191-9.93376484 3.78046578-5.77490375 7.24773661-11.74191559 10.51707733-17.80789248 1.63932729-3.04695979 3.18900451-6.13932829 4.69909504-9.25265237 0.75562781-1.56015502 1.47865486-3.13661099 2.20168192-4.70957397 0.20258702-0.44126777 0.37257443-0.80918528 0.51927609-1.12936619 5.71319637-13.86908217 9.98266539-28.29004117 13.01681835-42.95666574 0.72419101-3.48939264 1.33428224-7.00323499 1.9012938-10.52755627 0.04075065-0.25032363 0.0896512-0.56468366 0.13855061-0.9058213 0.19676615-1.66843506 0.37956039-3.34152704 0.54605483-5.01461902 0.79288547-7.86597774 1.11772331-15.78318393 1.14450204-23.68874723-0.02561479-7.30944398-0.35278165-14.60375325-0.97567972-21.88758244-0.12690773-1.44372622-0.68460544-5.9902976-0.89417842-7.85782784-0.46222563-2.88978034-0.96170781-5.77373867-1.51591253-8.65071217-2.76170752-14.38602923-6.99624903-28.47399936-12.32173397-42.12070173-0.20840903-0.52975389-0.42962489-1.05019392-0.64269084-1.57645597-0.32250994-0.74980579-0.68693447-1.59508366-0.92677917-2.12600262-1.42160441-3.16338973-2.94333781-6.26972899-4.49534293-9.37141135-3.36248377-6.67606813-7.09870706-13.16235605-11.06196708-19.49844935-3.57554973-5.73298915-7.45381661-11.27270514-11.49857792-16.68551225-0.9058213-1.12936619-1.82212153-2.24708949-2.74307868-3.36131982-2.55562752-3.07956053-5.21720605-6.07529187-7.9230282-9.03609344-4.62690873-5.06119054-9.52975474-9.88602937-14.56765952-14.54786674-2.52302791-2.33208263-5.12057003-4.59081501-7.73674098-6.81229084-1.34592512-1.1433381-6.46300217-5.14385579-7.45498168-5.96468395-10.57878471-7.73790493-21.83751794-14.56300259-33.5188901-20.54864327-3.09586034-1.58227683-6.24295026-3.06675371-9.40633998-4.51979378-1.15265195-0.53091897-2.31811186-1.03738709-3.48357064-1.54618425-0.07218631-0.02910777-0.14087965-0.05705045-0.20608-0.08382919-7.0754213-2.83738681-14.315008-5.26494265-21.62561592-7.42936689C536.6655909 413.12484125 529.73687125 411.47969195 522.76041501 410.06041657L522.76041501 410.06041657zM538.04760861 235.17864163000002c0-17.10815118 14.39068729-31.37891555 31.63971811-31.37891555l412.03354055 0c17.2443739 0 31.63971811 14.27192832 31.63971812 31.37891555 0 17.10698723-14.39418027 31.37658766-31.63971812 31.37658767L569.68732672 266.55522929999995C552.43829589 266.55522929999995 538.04760861 252.28446493 538.04760861 235.17864163000002L538.04760861 235.17864163000002zM981.72086727 103.12080384000001L569.68732672 103.12080384000001c-17.24903083 0-31.63971811-14.27192832-31.63971811-31.37775161 0-17.10465821 14.39068729-31.38240853 31.63971811-31.38240853l412.03354055 0c17.2443739 0 31.63971811 14.27775033 31.63971812 31.38240853C1013.36058539 88.85003946999996 998.96640512 103.12080384000001 981.72086727 103.12080384000001L981.72086727 103.12080384000001zM981.72086727-60.31944249000003L569.68732672-60.31944249000003c-17.24903083 0-31.63971811-14.27309341-31.63971811-31.37775161 0-17.10000128 14.39068729-31.37542258 31.63971811-31.37542257l412.03354055 0c17.2443739 0 31.63971811 14.2754213 31.63971812 31.37542257C1013.36058539-74.59253475000003 998.96640512-60.31944249000003 981.72086727-60.31944249000003L981.72086727-60.31944249000003z"  horiz-adv-x="1024" />

    
    <glyph glyph-name="fanhui1" unicode="&#58887;" d="M644.20213191 637.05634133L443.48138382 637.05634133 443.48138382 800.1099093299999l-440.41357084-220.20096 440.41357084-220.20678542L443.48138382 522.37707947l217.34650311-1e-8c172.04219449 0 258.03707733-72.05464747 258.03707734-216.16976781 0-149.1075072-88.85516515-223.63795911-266.62957512-223.63795912L145.34209991 82.56935252999995l0-114.68508728 512.05461334 0c242.36086614 0 363.5412992 109.13928533 363.5412992 327.42368142 0 227.83226311-125.566976 341.75422009-376.73005512 341.75422008z m0 0"  horiz-adv-x="1024" />

    
    <glyph glyph-name="celiang" unicode="&#58886;" d="M947.330443 615.113443L740.015166 822.42872c-13.659654 13.659654-35.779673 13.648391-49.42704 0L71.584942 203.42656c-13.648391-13.648391-13.659654-35.767386 0-49.42704l207.315277-207.315277c13.659654-13.659654 35.779673-13.648391 49.42704 0l619.00216 619.00216c13.649415 13.647367 13.661702 35.767386 0.001024 49.42704zM303.614763 20.824803999999972L145.726527 178.71303999999998l39.749276 39.749276 27.055146-27.055146c13.659654-13.659654 35.779673-13.648391 49.42704 0 13.648391 13.648391 13.659654 35.767386 0 49.427041l-27.055146 27.055145 39.749276 39.749276 27.055146-27.055145c13.659654-13.659654 35.779673-13.648391 49.42704 0 13.648391 13.648391 13.659654 35.767386 0 49.428064l-27.055146 27.055146 39.749276 39.749276 27.055146-27.055146c13.659654-13.659654 35.779673-13.648391 49.42704 0 13.648391 13.648391 13.660678 35.767386 0 49.428064l-27.055146 27.055146 39.749276 39.749276 27.055146-27.055146c13.659654-13.659654 35.779673-13.648391 49.42704 0 13.648391 13.648391 13.660678 35.767386 0 49.428064l-27.055145 27.055146 39.749276 39.749276 27.055146-27.055146c13.659654-13.659654 35.779673-13.648391 49.42704 0 13.648391 13.648391 13.659654 35.767386 0 49.42704l-27.055146 27.055146 39.738013 39.738013 27.055146-27.055145c13.659654-13.660678 35.779673-13.648391 49.42704 0 13.648391 13.648391 13.659654 35.767386 0 49.42704l-27.055146 27.055146 34.52439 34.524389 157.888236-157.888237-569.571024-569.574095z"  horiz-adv-x="1024" />

    
    <glyph glyph-name="suoxiao" unicode="&#58882;" d="M420.9664 894.57777777q83.21706667 0 159.09546667-32.52906667t130.6624-87.27893333 87.27893333-130.6624 32.52906667-159.09546667q0-71.4752-23.27893334-136.87466666t-66.32106666-118.74986667L999.424-28.763022230000047q13.14133333-13.14133333 13.14133333-32.3584 0-19.5584-12.97066666-32.52906667t-32.52906667-12.97066666q-19.21706667 0-32.3584 13.14133333L676.5568 165.01191110000002q-53.3504-43.008-118.74986667-66.32106666t-136.87466666-23.27893334q-83.21706667 0-159.09546667 32.52906667t-130.6624 87.27893333-87.27893333 130.6624T11.3664 484.97777777t32.52906667 159.09546667 87.27893333 130.6624 130.6624 87.27893333 159.09546667 32.52906667z m0-91.0336q-64.7168 0-123.73333333-25.25866667t-101.6832-67.92533333-67.92533334-101.6832-25.25866666-123.73333333 25.25866666-123.73333334 67.92533334-101.6832 101.6832-67.92533333 123.73333333-25.25866667 123.73333333 25.25866667 101.6832 67.92533333 67.92533334 101.6832 25.25866666 123.73333334-25.25866666 123.73333333-67.92533334 101.6832-101.6832 67.92533333-123.73333333 25.25866667z m-136.53333333-273.06666667h273.06666666q18.8416 0 32.18773334-13.34613333t13.34613333-32.18773333-13.34613333-32.18773334-32.18773334-13.34613333h-273.06666666q-18.8416 0-32.18773334 13.34613333t-13.34613333 32.18773334 13.34613333 32.18773333 32.18773334 13.34613333z"  horiz-adv-x="1024" />

    
    <glyph glyph-name="shuaxin1" unicode="&#58889;" d="M175.42004978 503.09752059C227.20157984 642.90765392 356.65540741 741.2925629700001 512 741.2925629700001c67.31599053 0 129.45382756-20.71261275 186.41351111-51.78153128l-67.31599052-113.91936708 357.29256296-181.23535884c-5.17815349 258.90765392-217.48242963 466.03377778-476.39008355 466.03377778-207.12612386 0-383.18332799-134.63197984-450.49931852-315.86733747 15.53445925-88.02860206 98.38490905-67.31599053 113.9193683-41.42522549z m667.98174816-248.55134815c-51.78153127-134.63197984-181.23535762-227.83873539-331.40179794-227.83873541-67.31599053 0-134.63197984 20.71261275-191.59166461 56.95968356L377.36802016 176.87387614l-346.93625719 196.76981809c5.17815349-258.90765392 217.48242963-466.03377778 476.39008354-466.03377778 207.12612386 0 383.18332799 134.63197984 450.49931851 321.04549096 25.89076502 56.95968355-72.49414281 134.63197984-113.91936708 25.89076503z m0 0"  horiz-adv-x="1024" />

    
    <glyph glyph-name="expand" unicode="&#59118;" d="M983.93680738 396.10094418L827.63295038 552.4048012000001c-10.08411998 10.08411998-22.18506364 4.03364789-22.18506366-12.10094366l0-98.82437451-181.51415645 0c-10.08411997 0-18.15141574-8.06729578-19.15982784-19.15982785l0-74.62248616c0-10.08411997 8.06729578-18.15141574 19.15982784-19.15982785l183.53098065 0 0-98.82437451c0-16.13459154 12.10094366-22.18506363 22.18506364-12.10094366L984.94521949 372.90746793000005c6.05047209 6.05047209 5.04205947 17.14300364-1.00841212 23.19347624zM43.0884284 368.87382003000005l155.29544492-155.29544493c10.08411998-10.08411998 24.20188732-2.0168242 24.20188784 14.11776787l1.0084121 99.83278559 182.52256855 1.00841209c10.08411997 0 19.15982784 9.07570788 19.15982784 19.15982786l0 74.62248718c0 10.08411997-8.06729578 18.15141574-19.15982732 19.15982734l-181.51415747 0-1.0084116 99.8327861C222.58576116 558.45527277 209.47640539 565.5141569699999 199.39228543 555.43003699l-155.29544493-155.29544493c-7.05888368-7.05888368-8.06729577-24.20188732-1.0084121-31.26077203zM524.10094418-87.93680738L680.4048012 68.36704961999999c10.08411998 10.08411998 4.03364789 22.18506364-12.10094366 22.18506366l-98.82437451 0 0 181.51415645c0 10.08411997-8.06729578 18.15141574-19.15982785 19.15982784l-74.62248616 0c-10.08411997 0-18.15141574-8.06729578-19.15982785-19.15982784l0-183.53098065-98.82437451 0c-16.13459154 0-22.18506363-12.10094366-12.10094366-22.18506364l155.29544494-155.29544494c6.05047209-6.05047209 17.14300364-5.04205947 23.19347623 1.00841213zM496.87382003 852.9115716l-155.29544493-155.29544492c-10.08411998-10.08411998-2.0168242-24.20188732 14.11776787-24.20188784l99.83278559-1.0084121 1.00841209-182.52256855c0-10.08411997 9.07570788-19.15982784 19.15982786-19.15982784l74.62248718 0c10.08411997 0 18.15141574 8.06729578 19.15982734 19.15982732l0 181.51415747 99.8327861 1.0084116C686.45527277 673.41423884 693.51415697 686.52359461 683.43003699 696.60771457L528.13459206 851.9031595C521.07570788 858.9620437 503.9327037 859.97045528 496.87382003 852.9115716z"  horiz-adv-x="1024" />

    
    <glyph glyph-name="dianji" unicode="&#59454;" d="M836.294944 549.459403h-2.541893c-18.721387 0-34.07712-5.369288-48.860824-14.532995-12.958126 37.764092-45.890166 64.969711-88.308255 64.96971-18.721387 0-36.619012-5.369288-51.402717-14.532994-12.958126 37.765115-45.890166 64.968687-88.344071 64.968687-16.537651 0-31.930223-4.152577-45.532009-11.419074v97.185436c0 52.941769-40.055275 95.825462-93.355201 95.825463s-96.540753-42.919509-96.540753-95.825463v-372.06083l-58.597583 58.382688c-37.693484 37.44175-104.416118 32.108279-136.524397 0-32.109302-32.109302-53.156664-96.684016-7.194866-142.68163l269.613554-267.823791c5.548366-5.51255 11.669784-10.130731 18.11252-14.031575 49.14735-40.09109 105.490589-63.823608 224.582965-63.823607 272.082792 0 297.283754 146.798391 297.283753 327.852979v191.685717c-0.037862 52.941769-39.054481 95.861278-92.390223 95.861279m41.522696-287.51118c0-153.205311-0.716314-277.417287-246.454088-277.417287-104.093776 0-166.593226 23.195282-213.950814 70.231551L162.188916 308.302971c-22.586414 22.586414-16.894785 51.438533 1.574868 69.945025 18.470677 18.470677 52.404534 19.114336 70.266344 1.39579 0 0 44.780903-44.494377 83.368756-82.867336a83728.374434 83728.374434 0 0 1 54.838979-54.516638V726.003258c0 25.056676 20.475334 45.388746 45.746903 45.388746 25.27157 0 42.525536-20.332071 42.525536-45.388746v-307.699988h0.50142a25.933649 25.933649 0 0 1-0.50142-5.046946c0-13.924127 11.383258-25.235754 25.414833-25.235754 14.031575 0 25.414833 11.275811 25.414833 25.235754 0 1.718131-0.179079 3.400446-0.501421 5.046946h0.501421V544.411433c0 25.056676 18.255783 45.388746 43.527352 45.388746 0 0 44.744064 0.608867 44.744063-45.388746v-166.449963h0.501421a25.933649 25.933649 0 0 1-0.501421-5.046946c0-13.925151 11.383258-25.235754 25.414833-25.235754 14.031575 0 25.414833 11.275811 25.414833 25.235754 0 1.718131-0.179079 3.400446-0.50142 5.046946h0.50142V493.97574c0 25.056676 17.969257 45.388746 43.240827 45.388747 0 0 45.675272-2.864234 45.675272-45.388747V347.67877h0.50142a25.933649 25.933649 0 0 1-0.50142-5.046946c0-13.924127 11.383258-25.235754 25.414833-25.235755 14.031575 0 24.77015 11.275811 24.770149 25.235755 0 1.718131-0.179079 3.400446-0.465604 5.046946h0.465604v99.869568c0 25.057699 18.828834 45.388746 44.100404 45.388747 0 0 44.279483 1.789763 44.279483-45.388747v-185.601138h-0.104377M283.715737 593.201649"  horiz-adv-x="1024" />

    
    <glyph glyph-name="menzhenyishengzhan" unicode="&#58901;" d="M236.8 857.6v-275.2c0-108.8 64-204.8 153.6-249.6-64-19.2-121.6-57.6-172.8-102.4-76.8-76.8-121.6-185.6-121.6-294.4 0-12.8 12.8-25.6 25.6-25.6s25.6 12.8 25.6 25.6c0 96 38.4 192 108.8 262.4 64 70.4 153.6 102.4 249.6 108.8h12.8c153.6 0 275.2 121.6 275.2 275.2V857.6H236.8z m569.6-627.2c-6.4 6.4-25.6 6.4-32 0-6.4-6.4-6.4-25.6 0-32 70.4-70.4 108.8-160 108.8-262.4 0-12.8 12.8-25.6 25.6-25.6s25.6 12.8 25.6 25.6c-6.4 108.8-51.2 211.2-128 294.4zM518.4 352c-6.4 0-6.4 0 0 0h-12.8c-128 6.4-224 102.4-224 230.4h460.8c0-128-102.4-230.4-224-230.4zM537.6 704v-57.6h-51.2V704h-64v44.8h64v57.6h57.6v-57.6h64V704H537.6z"  horiz-adv-x="1024" />

    
    <glyph glyph-name="pingheng" unicode="&#58912;" d="M550.570667 113.85018200000002v120.335515l0.496485 0.341333-0.496485 0.713697V650.984727c134.578424-15.484121 239.460848-129.954909 239.460848-268.567272 0-138.674424-104.882424-253.145212-239.460848-268.567273z m-62.060606 76.520727v-76.520727a267.419152 267.419152 0 0 0-78.258425 21.348848l78.258425 55.202909z m0 460.582788v-29.633939l-234.43394-187.516122a270.987636 270.987636 0 0 0 234.43394 217.150061z m0-205.234424L270.584242 276.66618200000005a269.467152 269.467152 0 0 0-19.704242 75.124363l237.630061 190.029576v-96.100848z m-186.616243-223.263031l186.616243 144.756364v-100.848485l-136.223031-96.131879a272.228848 272.228848 0 0 0-50.393212 52.224z m550.167273 159.930182c0 183.389091-149.131636 332.551758-332.520727 332.551758-183.389091 0-332.551758-149.193697-332.551758-332.520727 0-122.724848 66.963394-229.841455 166.105212-287.495758h0.062061a330.224485 330.224485 0 0 1 166.384485-45.08703c183.389091 0 332.551758 149.193697 332.551757 332.551757zM550.570667 756.363636v93.090909a31.030303 31.030303 0 0 1-62.060606 0v-93.090909a31.030303 31.030303 0 0 1 62.060606 0M519.540364 40.06012099999998a31.030303 31.030303 0 0 1-31.030303-31.030303v-93.090909a31.030303 31.030303 0 0 1 62.060606 0v93.090909a31.030303 31.030303 0 0 1-31.030303 31.030303M251.221333 647.819636v-0.03103c12.101818-12.101818 31.77503-12.101818 43.907879 0 12.101818 12.132848 12.101818 31.77503 0 43.907879H295.098182l-65.784243 65.784242-0.03103 0.031031a31.030303 31.030303 0 0 1-43.876848-43.876849v-0.03103l65.784242-65.784243zM757.76 647.788606a31.030303 31.030303 0 0 1 43.876848 0l0.031031 0.03103 65.784242 65.784243 0.031031 0.03103a31.030303 31.030303 0 0 1-43.907879 43.876849l-65.784243-65.815273a31.030303 31.030303 0 0 1 0-43.907879M757.79103 83.93696999999997l65.784243-65.784243h0.03103a30.999273 30.999273 0 1 1 43.876849 43.876849h-0.062061l-65.753212 65.846303a31.030303 31.030303 0 0 1-43.907879-43.907879h0.03103M171.783758 62.02957600000002a31.030303 31.030303 0 1 1 43.876848-43.907879l65.784242 65.815273 0.062061 0.03103a31.030303 31.030303 0 0 1-43.907879 43.876848l-65.784242-65.815272h-0.03103M52.19297 337.45454500000005h93.121939a31.030303 31.030303 0 0 1 0 62.060607h-106.744242a31.030303 31.030303 0 1 1 0-62.060607h13.653333zM868.848485 368.48484800000006a31.030303 31.030303 0 0 1 31.030303-31.030303h93.090909a31.030303 31.030303 0 0 1 0 62.060607h-93.090909a31.030303 31.030303 0 0 1-31.030303-31.030304"  horiz-adv-x="1024" />

    
    <glyph glyph-name="jiantou" unicode="&#58958;" d="M745.13493333 342.976c-0.384-0.38293333-0.91306667-0.47893333-1.29493333-0.84053333l-383.05386667-420.97173334c-23.13813333-22.65813333-60.43413333-22.9216-83.2576-0.55253333-22.82453333 22.37013333-22.58453333 58.87253333 0.576 81.55626667l346.71466667 381.03573333-347.4112 381.78133333c-23.136 22.68053333-23.16053333 59.4016-0.048 82.0576 23.13706667 22.63253333 60.62613333 22.60906667 83.78666667-0.048l383.96373333-421.98186666c23.13706667-22.65706667 23.16053333-59.4016 0.02346667-82.0352z"  horiz-adv-x="1024" />

    
    <glyph glyph-name="sanseicon" unicode="&#58911;" d="M556.617143 603.18476234l84.114286-46.811429-81.92-49.005714-87.04 49.005714zM424.96 271.11619034v-96.548571l-87.04 48.274285v98.742858zM687.542857 271.11619034v-96.548571l87.771429 48.274285v98.742858zM243.22417 532.5007983400001a65.828571 43.88571400000001 57.003000000000014 1 1-73.613817 47.799892 65.828571 43.88571400000001 57.003000000000014 1 1 73.613817-47.799892ZM880.183819 545.55260634a36.571429 67.291429 27 1 1 65.170763 33.206163 36.571429 67.291429 27 1 1-65.170763-33.206163ZM482.874982-39.174430659999985a74.603476 54.855497 3.0000000000000084 1 1 149.002469 7.808889 74.603476 54.855497 3.0000000000000084 1 1-149.002469-7.808889ZM574.902857 704.12190434l285.257143-158.72c-8.777143 5.12-8.777143 28.525714 0 32.914286l-268.434286-154.331428c-8.045714-4.388571-27.062857-5.12-35.108571-0.731429l-298.422857 153.6c9.508571-5.12 10.24-29.988571 0.731428-35.108571l283.062857 161.645714c7.314286 5.12 25.6 5.12 32.914286 0.731428z m-359.862857-85.577142c-51.2-29.257143-49.737143-92.16 2.925714-119.222858l298.422857-153.6c35.108571-18.285714 84.845714-16.822857 119.222858 2.925715l268.434285 154.331428c50.468571 29.257143 49.737143 91.428571-0.731428 119.954286l-285.257143 158.72c-34.377143 19.017143-85.577143 19.017143-119.222857-0.731429l-283.794286-162.377142zM240.64 520.53333334c-2.194286-5.12-6.582857-10.24-12.434286-13.897143-5.851429-3.657143-12.434286-5.12-18.285714-4.388571-3.657143 0-6.582857 1.462857-8.045714 2.194285l299.885714-171.885714c0.731429-0.731429 1.462857-1.462857 1.462857-2.925714 0.731429-2.194286 1.462857-3.657143 1.462857-2.925714v-348.891429c0 2.194286 0.731429 5.12 2.194286 8.045714 2.194286 5.12 6.582857 10.24 12.434286 13.165715 5.851429 3.657143 12.434286 4.388571 18.285714 4.388571 3.657143 0 6.582857-1.462857 8.045714-2.194286l-295.497143 174.08s-0.731429 1.462857-2.194285 2.925715c-1.462857 2.194286-1.462857 3.657143-1.462857 3.657142l-4.388572 346.697143c0-1.462857 0-4.388571-1.462857-8.045714z m-81.92-339.382857c0.731429-31.451429 19.748571-65.097143 46.811429-81.188572l295.497142-174.08c43.154286-25.6 91.428571 2.194286 91.428572 51.931429V326.70476234c0 32.182857-19.748571 65.828571-47.542857 81.92l-299.885715 171.885714c-43.154286 24.868571-91.428571-2.925714-90.697142-53.394286l4.388571-345.965714zM867.474286 581.24190434l-299.885715-171.885714c-27.794286-16.091429-47.542857-49.737143-47.542857-81.92v-348.891428c0-49.737143 48.274286-77.531429 91.428572-51.931429L906.971429 99.96190434000005c27.062857 16.091429 46.811429 49.737143 46.811428 81.188572l4.388572 346.697143c0.731429 50.468571-47.542857 78.262857-90.697143 53.394285z m-1.462857-398.628571s-0.731429-1.462857-1.462858-3.657143c-1.462857-2.194286-2.194286-3.657143-2.194285-2.925714l-295.497143-174.08c2.194286 0.731429 4.388571 2.194286 8.045714 2.194286 5.851429 0.731429 12.434286-0.731429 18.285714-4.388572s10.24-8.045714 12.434286-13.165714c1.462857-3.657143 2.194286-5.851429 2.194286-8.045714v348.891428l1.462857 2.925714c0.731429 1.462857 1.462857 2.194286 2.194286 2.925715l299.154285 171.885714c-2.194286-0.731429-4.388571-2.194286-8.045714-2.194286-5.851429-0.731429-12.434286 0.731429-18.285714 4.388572s-10.24 8.045714-12.434286 13.897143c-1.462857 3.657143-2.194286 5.851429-2.194286 8.045714l-3.657142-346.697143z"  horiz-adv-x="1111" />

    
    <glyph glyph-name="beijingyanse" unicode="&#58941;" d="M896 512c-46.72 46.72-160.64 25.6-219.52 10.24L448.64 743.04l-21.76-21.76L313.6 830.72 223.36 743.04 336.64 633.6 66.56 371.84v-2.56L448.64 0l359.68 349.44L960 202.88S960 448 896 512zM194.56 371.84l255.36 247.68 254.72-247.68H194.56z"  horiz-adv-x="1024" />

    
    <glyph glyph-name="dayinji" unicode="&#58885;" d="M817.49333333 681.52888889c0 67.69777778-54.95466667 122.65244445-122.65244444 122.65244445H326.99733333c-67.69777778 0-122.65244445-54.95466667-122.65244444-122.65244445v-275.9111111h613.14844444V681.52888889z m61.32622222-337.23733333H143.01866667c-67.69777778 0-122.65244445-54.95466667-122.65244445-122.65244444v-61.32622223c0-67.69777778 54.95466667-122.65244445 122.65244445-122.65244444h61.32622222c13.65333333-52.79288889 65.536-91.93244445 122.65244444-91.93244444h367.84355556c57.11644445 0 108.99911111 39.13955555 122.65244444 91.93244444h61.32622222c67.69777778 0 122.65244445 54.84088889 122.65244445 122.65244444v61.32622223c-0.11377778 67.69777778-54.95466667 122.65244445-122.65244445 122.65244444z m61.21244445-183.97866667c0-33.90577778-27.42044445-61.32622222-61.32622222-61.32622222h-61.32622223c-13.65333333 52.79288889-65.536 91.93244445-122.65244444 91.93244445H326.99733333c-57.11644445 0-108.99911111-39.13955555-122.65244444-91.93244445h-61.32622222c-33.90577778 0-61.32622222 27.42044445-61.32622222 61.32622222v61.32622223c0 33.90577778 27.42044445 61.32622222 61.32622222 61.32622222h735.68711111c33.90577778 0 61.32622222-27.42044445 61.32622222-61.32622222v-61.32622223z"  horiz-adv-x="1024" />

    
    <glyph glyph-name="xinxinicon" unicode="&#58890;" d="M322.47868861 694.28595764l-11.6724622-18.05653332c-4.74225778-7.47747555-8.7552-17.87448889-8.57201778-29.54695111 0-11.85564445 3.82976-24.25742222 11.30837332-36.84238224 10.94314667-18.23857778 30.45944889-37.57169778 61.10094223-57.27004444l258.44622223-175.09376001-3.28248891 138.43342224-307.32629333 178.37738667zM1071.1876664 135.81001098000002l0.36522666-0.18204445c18.23857778-11.12519111 34.83648-18.42176 52.52778669-19.88039112s34.65443555 4.01294222 49.24529776 12.76700444c27.35786667 16.23267555 51.98051555 40.49009778 60.91776001 74.9624889s1.09454222 74.96248889-26.26446223 120.74211554c-0.18204445 0.54727111-0.54727111 1.09454222-0.72931556 1.64181335-27.35786667 45.96167111-64.20138667 70.03704889-102.68558222 74.41521776-38.66624 4.56021333-75.69180445-8.02474667-109.98101333-24.07537776-24.25742222-11.67246222-41.94986667-20.42766222-55.99345778-23.34606222-14.04359111-2.55317333-24.98787555-2.00590222-44.86826666 7.66065779l-55.44618667 32.28330664 2.55317333-109.61578666 230.35790221-147.37066667zM1104.74642195 321.66487321c47.78552889-28.99968 63.10684445-91.01198222 34.10716446-138.7986489l-172.90467556 104.50944c28.81763555 47.78552889 91.01198222 63.10684445 138.79864888 34.2892089zM691.08796863 240.31831321000004c-0.91249778-21.88629333-5.65361778-31.91808-14.59086222-42.86122668-9.30133333-10.94314667-25.53400889-22.25152-47.42144001-37.93692444-30.45944889-22.43356445-59.45912889-48.88007111-74.04999113-84.9931378-14.77404445-36.29511111-10.94314667-80.61610667 17.14517336-127.12504887 26.99377778-45.96167111 58.72981333-72.40817778 93.38311111-81.16337779 34.47125333-8.57201778 67.66705778 1.27658667 94.84287999 17.50926224 14.95608889 8.7552 27.72309333 20.97493333 35.01852444 37.20760889 7.11338667 16.23267555 8.7552 34.28920889 7.84270223 55.44618665l-0.18204444 0.36522669-20.06243556 294.74133332-1.27658667 17.50926222c-0.72931555 8.93724445 6.01884445 16.59790222 14.9560889 17.32721778 1.27658667 0 2.37112889-0.18204445 3.64771554-0.36522666h0.54727113l-7.11338667 289.26975999-19.51516446 194.06279112c-2.73635555 36.47829333-10.21383111 62.74161778-21.15697777 81.16337776-7.29543111 12.58496-16.41472 21.88629333-26.81173333 27.5410489-10.21383111 5.65361778-21.15697778 7.29543111-30.09422222 6.56611556l-21.52220446-1.45863112 14.04359112-565.95456 2.3711289-96.84878221zM722.45877749 144.38202876000003l7.29543112-201.90549335c-55.81141333-2.00590222-102.68558222 41.58464-104.50943998 97.21400888-2.00590222 55.81141333 41.58464 102.68558222 97.21400886 104.69148447z"  horiz-adv-x="1824" />

    
    <glyph glyph-name="shanchu" unicode="&#58940;" d="M214.6048 597.333333v-598.613333a41.429333 41.429333 0 0 1 41.386667-41.386667h513.28c22.869333 0 41.386667 18.56 41.386666 41.386667V597.333333h-596.053333z m554.666667-725.333333h-513.28c-69.845333 0-126.72 56.832-126.72 126.72V682.666667h766.72v-683.946667c0-69.888-56.832-126.72-126.72-126.72zM981.333333 597.333333H42.666667c-23.466667 0-42.666667 19.2-42.666667 42.666667s19.2 42.666667 42.666667 42.666667h938.666666c23.466667 0 42.666667-19.2 42.666667-42.666667s-19.2-42.666667-42.666667-42.666667M768 682.666667H682.666667V768c0 23.509333-19.114667 42.666667-42.666667 42.666667H384c-23.509333 0-42.666667-19.157333-42.666667-42.666667v-85.333333H256V768c0 70.570667 57.429333 128 128 128h256c70.570667 0 128-57.429333 128-128v-85.333333zM384 85.333333c-23.466667 0-42.666667 19.2-42.666667 42.666667V426.666667c0 23.466667 19.2 42.666667 42.666667 42.666666s42.666667-19.2 42.666667-42.666666v-298.666667c0-23.466667-19.2-42.666667-42.666667-42.666667M640 85.333333c-23.466667 0-42.666667 19.2-42.666667 42.666667V426.666667c0 23.466667 19.2 42.666667 42.666667 42.666666s42.666667-19.2 42.666667-42.666666v-298.666667c0-23.466667-19.2-42.666667-42.666667-42.666667"  horiz-adv-x="1024" />

    
    <glyph glyph-name="jiantou1" unicode="&#58924;" d="M376.56926878 751.66699267l-333.33324863-333.33324864c-26.03316464-26.03316464-26.03316464-68.23381776 0-94.2669824l333.33324863-333.33324862c26.03316464-26.03316464 68.23381776-26.03316464 94.2669824 0s26.03316464 68.23381776 0 94.2669824l-219.53427277 219.53427278h639.06694129c36.83349744 0 66.66742645 29.83392901 66.66742647 66.66742646s-29.83392901 66.66742645-66.66742647 66.66742645h-639.06694129l219.53427277 219.53427279c13.00104786 12.99975333 19.53328798 30.0669459 19.53328799 47.13413846s-6.49987666 34.13309061-19.53328799 47.13413848c-26.03316464 26.03316464-68.23381776 26.03316464-94.2669824 0z"  horiz-adv-x="1000" />

    
    <glyph glyph-name="icon-yx" unicode="&#59291;" d="M226.304 639.488c12.288-12.288 31.232-12.288 43.52 0s12.288 31.232 0 43.52L204.288 748.032c-12.288 12.288-31.232 12.288-43.52 0-12.288-12.288-12.288-31.232 0-43.52l65.536-65.024z m18.432-465.92l-65.024-65.024c-12.288-12.288-12.288-31.232 0-43.52 12.288-12.288 31.232-12.288 43.52 0l65.024 65.024c12.288 12.288 12.288 31.232 0 43.52-12.288 12.288-31.232 12.288-43.52 0z m565.76 478.208L875.52 716.8c12.288 12.288 12.288 31.232 0 43.52s-31.232 12.288-43.52 0l-65.024-65.024c-12.288-12.288-12.288-31.232 0-43.52 12.288-12.288 30.72-12.288 43.52 0z m-298.496 87.04c18.432 0 31.232 12.288 31.232 31.232V863.232c0 18.432-12.288 31.232-31.232 31.232s-31.232-12.288-31.232-31.232v-93.184c0-18.944 15.872-31.232 31.232-31.232zM139.264 428.032H46.08c-18.432 0-31.232-12.288-31.232-31.232s12.288-31.232 31.232-31.232h93.184c18.432 0 31.232 12.288 31.232 31.232 0 15.872-12.8 31.232-31.232 31.232z m658.432-273.408c-12.288 12.288-31.232 12.288-43.52 0-12.288-12.288-12.288-31.232 0-43.52L819.2 46.08000000000004c12.288-12.288 31.232-12.288 43.52 0 12.288 12.288 12.288 31.232 0 43.52l-65.024 65.024zM977.92 428.032h-93.184c-18.432 0-31.232-12.288-31.232-31.232s12.288-31.232 31.232-31.232H977.92c18.432 0 31.232 12.288 31.232 31.232 0 15.872-12.288 31.232-31.232 31.232z m-465.92 248.832c-155.136 0-279.552-124.416-279.552-279.552S356.864 117.75999999999999 512 117.75999999999999s279.552 124.416 279.552 279.552-124.416 279.552-279.552 279.552z m0-497.152c-121.344 0-217.6 96.256-217.6 217.6S390.656 614.4 512 614.4s217.6-96.256 217.6-217.6-96.256-217.088-217.6-217.088z m0-124.416c-18.432 0-31.232-12.288-31.232-31.232v-93.184c0-18.432 12.288-31.232 31.232-31.232s31.232 12.288 31.232 31.232v93.184c0 15.872-12.8 31.232-31.232 31.232zM373.76 635.392h138.24v-470.016H373.76zM302.592 577.024h109.568v-354.304H302.592zM268.8 501.76h78.336v-202.24H268.8z"  horiz-adv-x="1024" />

    
    <glyph glyph-name="guanligenjin" unicode="&#58981;" d="M877.24999971 469.095h-45.50999942a330.49500029 330.49500029 0 0 1-30.90000058 76.06500029l40.87500029 40.91999942a69.82499971 69.82499971 0 0 1-0.02999971 98.71500058L816.99499971 709.50000029a69.75 69.75 0 0 1-98.66999971-0.03000058l-40.11000029-40.16999971a328.275 328.275 0 0 1-79.07999942 33.075V749.24999971A69.75 69.75 0 0 1 529.38500029 818.99999971h-34.89000029a69.75 69.75 0 0 1-69.75-69.75v-46.85999942a328.57499971 328.57499971 0 0 1-79.02-33.03l-40.23 40.21499971a69.705 69.705 0 0 1-98.64-0.06000029L182.24 684.84000029a69.86999971 69.86999971 0 0 1 0.02999971-98.71500058l40.905-40.95a328.60500029 328.60500029 0 0 1-30.89999971-76.06499942H146.75000029A69.75 69.75 0 0 1 77.00000029 399.36000029v-34.875a69.75 69.75 0 0 1 69.75-69.75h46.04999942a329.4 329.4 0 0 1 31.995-76.62000058L182.22499971 175.49999971a69.84 69.84 0 0 1-0.02999971-98.66999971l24.66-24.72000029a69.77999971 69.77999971 0 0 1 98.74500029-0.045l42.84 42.84a326.97 326.97 0 0 1 76.34999971-31.43999971v-44.685a69.75 69.75 0 0 1 69.75-69.75h34.875a69.75 69.75 0 0 1 69.75 69.75v44.685l4.88999971 1.36500029c20.655 5.96999971 27.495 31.905 12.85500058 47.62499942l-38.55000058 41.38500058a28.46999971 28.46999971 0 0 1-25.93499942 8.78999942 224.235 224.235 0 0 0-77.73000029-0.61499971c-96.00000029 15.91499971-171.69000029 95.265-183.04499971 191.90999971-16.93500029 144.07499971 104.265 264.80999971 248.47499971 247.08000058 96.39-11.85000029 175.29000029-87.615 190.845-183.49500058 4.34999971-26.80499971 3.80999971-52.875-0.79499971-77.50499942a28.50000029 28.50000029 0 0 1 9.045-26.25000029l42.67499942-38.77499971c15.75-14.31 41.24999971-7.40999971 47.34 12.98999971 0.65999971 2.22000029 1.305 4.47000029 1.92000058 6.705h46.04999942a69.75 69.75 0 0 1 69.75 69.75v34.92a69.68999971 69.68999971 0 0 1-69.705 69.75zM925.16000029 71.51999999999998L685.85000029 288.35999971l0.16499971 0.18c-2.00999971 1.90500029-3.465 3.30000029-4.24500029 4.11000029-12.78 13.095-8.47500029 24.795-4.46999942 32.65499971 28.33499971 54.82500029 3.69 132.93-36.81 173.44500029-40.51500029 40.51500029-79.63499971 47.89500029-99.66000058 49.14a82.91999971 82.91999971 0 0 1-33.84-5.33999971c-19.36500029-7.22999971-24.00000029-32.76-9.34499971-47.35500029l51.50999971-51.31500029c6.75-6.73499971 9.765-16.35000029 8.07000029-25.72499971l-9.09-50.085a29.00999971 29.00999971 0 0 0-23.4-23.37000029l-50.175-9.01499942a28.99500029 28.99500029 0 0 0-25.605 7.99499971l-51.14999971 50.96999971c-14.895 14.83499971-40.635 9.55500029-47.655-10.26-4.02000029-11.34-5.74499971-22.69500029-5.23500029-32.42999971 1.08-20.80500029 12.78-65.16 49.29000029-99.51000029 35.11500029-33.27000029 100.575-68.23500029 173.27999971-37.27499942 8.775 3.69 20.32499971 7.85999971 32.65499971-4.47000029 2.09999971-2.115 224.46-240.075 224.46-240.075 25.72499971-29.88 73.32000029-27.72 101.04000029-0.15000029 27.54 28.035 29.23499971 75.31499971-0.47999971 101.04000029z m-52.92-75.285a27.34499971 27.34499971 0 1 0 0 54.69000029 27.34499971 27.34499971 0 0 0 0-54.69000029z"  horiz-adv-x="1024" />

    
    <glyph glyph-name="yisheng" unicode="&#58902;" d="M951.5665625-17.04656250000005c0 124.4625-72.864375 232.7090625-178.035 284.25a92.6625 92.6625 0 0 0 7.74375-37.1203125v-10.9846875c50.694375-10.651875 89.0625-55.858125 89.0625-109.599375v-60.230625c7.6959375-6.63 12.57375-16.438125 12.57375-27.391875 0-19.965-16.185-36.1490625-36.1490625-36.1490625-19.965 0-36.15 16.185-36.15 36.1490625 0 12.0346875 5.8875 22.6875 14.9315625 29.259375v61.528125c0 36.5109375-29.8715625 66.3825-66.3815625 66.3825h-0.0440625c-36.5109375 0-66.3825-29.8715625-66.3825-66.3825v-62.731875c8.14875-6.628125 13.359375-16.7325 13.359375-28.055625 0-19.965-16.185-36.1490625-36.15-36.1490625-19.9640625 0-36.1490625 16.185-36.1490625 36.1490625 0 10.95375 4.8796875 20.7609375 12.5728125 27.391875v60.230625c0 54.901875 40.0546875 100.875 92.3775 110.2171875-2.049375 26.9784375-12.99375 51.5615625-29.88375 70.8253125a313.4503125 313.4503125 0 0 1-52.5525 8.008125c-8.68125-199.2609375-69.9815625-353.6878125-144.320625-353.6878125-74.345625 0-135.6478125 154.45125-144.3225 353.7346875-0.3853125-0.024375-0.766875-0.061875-1.15125-0.088125-18.0496875-21.2475-28.985625-48.6975-28.985625-78.5953125v-91.340625c25.6846875-9.4415625 44.008125-34.12125 44.008125-63.0815625 0-37.108125-30.0825-67.190625-67.190625-67.190625s-67.190625 30.0825-67.190625 67.190625c0 30.51 20.34375 56.2546875 48.1996875 64.4503125V239.51531250000005c0 18.313125 5.353125 35.428125 14.5434375 49.8946875C173.373125 254.4084375 71.675 129.99843750000002 71.675-17.04656250000005v-9.7996875h0.67125c-0.1725-0.76875-0.2925-1.5421875-0.2925-2.319375 0-36.9121875 196.884375-66.83625 439.7559375-66.83625s439.756875 29.925 439.756875 66.8371875c0 0.77625-0.1190625 1.54875-0.2925 2.3184375h0.2925v9.7996875zM516.903125 645.8428125c-109.04625 0-197.446875-33.6440625-197.446875-75.1471875 0-1.4175 0.1134375-2.8246875 0.316875-4.2234375h-0.316875l41.7103125-196.0996875a156.9825 156.9825 0 0 1 2.184375-10.27125l0.114375-0.538125h0.01875c17.2528125-68.7225 79.7259375-120.005625 153.60375-120.005625h0.020625c78.9609375 0 144.901875 58.575 156.52125 134.41875l40.7175 192.496875h-0.3159375c0.2034375 1.396875 0.3159375 2.8059375 0.3159375 4.2234375 0 41.5021875-88.3996875 75.14625-197.4440625 75.14625z m-0.9834375 14.67c96.9440625 0 179.240625-32.2425 208.569375-77.0128125h7.801875V771.5803125h-0.0375c0.013125 0.3478125 0.0375 0.6965625 0.0375 1.0471875 0 41.9540625-96.418125 75.965625-215.3559375 75.965625S301.578125 814.5825 301.578125 772.6275c0-0.3496875 0.024375-0.699375 0.0375-1.0471875h-0.0375v-188.08125h5.7721875c29.3278125 44.77125 111.6253125 77.0128125 208.569375 77.0128125z m-59.7253125 98.690625c0 8.1028125 6.6309375 14.73375 14.735625 14.73375h31.434375V805.36875c0 8.10375 6.63 14.735625 14.73375 14.735625s14.7346875-6.6309375 14.7346875-14.7346875v-31.434375h31.434375c8.1046875 0 14.735625-6.6309375 14.735625-14.7346875s-6.63-14.735625-14.735625-14.735625h-31.434375v-31.434375c0-8.10375-6.63-14.73375-14.7346875-14.73375s-14.73375 6.63-14.73375 14.73375v31.4353125h-31.434375c-8.1046875 0-14.735625 6.631875-14.735625 14.735625z"  horiz-adv-x="1024" />

    
    <glyph glyph-name="fangda1" unicode="&#58888;" d="M1003.29244445-48.92444445000001l-229.14844445 228.69333334c27.53422222 32.99555555 49.94844445 69.74577778 66.78755555 109.568 22.75555555 53.81688889 34.24711111 111.04711111 34.24711112 169.984s-11.49155555 116.05333333-34.24711112 169.984c-21.95911111 51.99644445-53.47555555 98.64533333-93.41155555 138.80888889-40.04977778 40.04977778-86.69866667 71.56622222-138.69511111 93.52533333-53.81688889 22.75555555-110.93333333 34.36088889-169.87022222 34.36088889-58.93688889 0-116.05333333-11.60533333-169.87022222-34.36088889-51.99644445-21.95911111-98.64533333-53.47555555-138.69511112-93.52533333s-71.45244445-86.81244445-93.41155555-138.80888889c-22.75555555-53.81688889-34.24711111-111.04711111-34.24711111-169.984s11.49155555-116.05333333 34.24711111-169.984c21.95911111-51.99644445 53.47555555-98.64533333 93.41155555-138.80888889 40.04977778-40.04977778 86.69866667-71.56622222 138.69511112-93.52533333 53.81688889-22.75555555 110.93333333-34.36088889 169.87022222-34.36088889 58.82311111 0 116.05333333 11.60533333 169.87022222 34.36088889 39.36711111 16.72533333 75.776 38.79822222 108.43022222 65.99111111l229.26222222-228.69333333c7.85066667-7.85066667 18.09066667-11.71911111 28.33066667-11.71911112 10.35377778 0 20.59377778 3.98222222 28.44444445 11.83288889 15.70133333 15.58755555 15.70133333 41.07377778 0 56.66133333zM691.42755555 208.09955555c-0.45511111-0.45511111-0.91022222-0.79644445-1.36533333-1.25155555-0.34133333-0.34133333-0.68266667-0.68266667-0.91022222-1.024-67.12888889-66.33244445-155.87555555-102.85511111-250.19733333-102.85511111-95.00444445 0-184.43377778 37.09155555-251.67644445 104.33422222-67.24266667 67.24266667-104.22044445 156.78577778-104.22044444 251.904s36.97777778 184.66133333 104.22044444 251.904c67.24266667 67.24266667 156.55822222 104.33422222 251.67644445 104.33422222s184.43377778-37.09155555 251.67644444-104.33422222c67.24266667-67.24266667 104.22044445-156.78577778 104.22044444-251.904 0-94.77688889-36.75022222-183.86488889-103.424-251.10755556zM582.20088889 489.81333333H467.62666667v111.50222222c0 22.18666667-14.79111111 40.16355555-36.97777778 40.16355556S393.67111111 623.50222222 393.67111111 601.31555555v-111.50222222H276.82133333c-22.18666667 0-40.16355555-14.79111111-40.16355555-36.97777778s17.97688889-36.97777778 40.16355555-36.97777777H393.67111111v-119.92177778c0-22.18666667 14.79111111-40.16355555 36.97777778-40.16355555s36.97777778 17.97688889 36.97777778 40.16355555V415.85777778h114.57422222c22.18666667 0 40.16355555 14.79111111 40.16355556 36.97777777S604.38755555 489.81333333 582.20088889 489.81333333z"  horiz-adv-x="1024" />

    
    <glyph glyph-name="laba" unicode="&#59116;" d="M853.72418617 496.50833523v305.26230072c0 13.56721379-11.87131165 25.43852544-25.43852544 25.4385243s-25.43852544-11.87131165-25.43852544-25.4385243v-788.59427498c0-13.56721379 11.87131165-25.43852544 25.43852544-25.43852544s25.43852544 11.87131165 25.43852544 25.43852544V316.74275954999996c49.18114873 0 89.88278784 40.70164025 89.88278784 89.88278784s-40.70164025 89.88278784-89.88278784 89.88278784zM300.86024306 572.82391041h-62.74836253v-325.61311972h62.74836253s25.43852544 5.08770531 67.8360667 3.39180316c105.14590379-1.69590215 305.26229959-37.30983709 420.58361287-259.47295402V828.90506241c-162.80655986-310.35000491-488.41967957-256.081152-488.41967957-256.081152zM372.08811293 231.94767588000002c-40.70164025 0-67.8360667-3.39180317-67.83606671-3.39180316h-62.74836139v3.39180316c-3.39180317-3.39180317-6.78360633-5.08770531-6.78360746-5.08770531h6.78360746s67.8360667-291.69508693 111.92950898-296.78279112c44.09344341-6.78360633 62.74836139 22.04672114 49.18114873 61.05246038-10.17540949 28.83032861-25.43852544 172.98196935-30.52622961 240.81803605zM66.82581219 410.01735055c0-89.88278784 72.92377202-162.80655986 162.806561-162.80655986h1.69590102l-1.69590102 323.9172187c-89.88278784 1.69590215-162.80655986-71.22786987-162.806561-161.11065884z"  horiz-adv-x="1024" />

    
    <glyph glyph-name="chakan" unicode="&#59078;" d="M1021.72444445 384c0-94.66311111-211.17155555-305.83466667-509.72444445-305.83466667-291.27111111 0-509.72444445 203.88977778-509.72444445 305.83466667s218.45333333 305.83466667 509.72444445 305.83466667c298.55288889 0 509.72444445-203.88977778 509.72444445-305.83466667M512 631.58044445C373.64622222 631.58044445 264.41955555 522.35377778 264.41955555 384s109.22666667-247.58044445 247.58044445-247.58044445 247.58044445 109.22666667 247.58044445 247.58044445S650.35377778 631.58044445 512 631.58044445m0-87.38133334c-87.38133333 0-152.91733333-72.81777778-152.91733333-160.19911111s72.81777778-160.19911111 152.91733333-160.19911111c87.38133333 0 152.91733333 72.81777778 152.91733333 160.19911111S599.38133333 544.19911111 512 544.19911111"  horiz-adv-x="1024" />

    
    <glyph glyph-name="icon" unicode="&#59406;" d="M512 384m-429.2 0a429.2 429.2 0 1 1 858.4 0 429.2 429.2 0 1 1-858.4 0ZM512-65.2c-60.6 0-119.5 11.9-174.9 35.3-53.5 22.6-101.5 55-142.8 96.3-41.3 41.3-73.6 89.3-96.3 142.8-23.4 55.3-35.2 114.2-35.2 174.8s11.9 119.5 35.3 174.9c22.6 53.5 55 101.5 96.3 142.8 41.3 41.3 89.3 73.6 142.8 96.3 55.4 23.4 114.2 35.3 174.9 35.3 60.6 0 119.5-11.9 174.9-35.3 53.5-22.6 101.5-55 142.8-96.3 41.3-41.3 73.6-89.3 96.3-142.8 23.4-55.4 35.3-114.2 35.3-174.9s-11.9-119.5-35.3-174.9c-22.6-53.5-55-101.5-96.3-142.8C788.5 25 740.5-7.3 687-30c-55.5-23.4-114.4-35.2-175-35.2z m0 858.4c-225.7 0-409.2-183.6-409.2-409.2S286.3-25.2 512-25.2 921.2 158.4 921.2 384 737.7 793.2 512 793.2zM82.8 384a429.2 156.9 0 1 1 858.4 0 429.2 156.9 0 1 1-858.4 0ZM646.1 234.9l-280.2-7.4c22.9-159.7 79.7-272.8 146.1-272.8 67.8 0 125.5 117.7 147.4 282.5l-13.3-2.3zM625.8 535.3l36.6-14.4-3.6-31.5c127.1-27.2 212.4-77.7 212.4-135.4 0-31.7-25.8-61.2-70.1-85.9 86.1 28.7 140.1 70 140.1 115.9 0 72.2-133.6 133.1-315.4 151.3zM512 207.1c-116.9 0-227.2 16.7-310.4 47.2-41.7 15.2-74.7 33.2-98.2 53.5-27 23.3-40.7 48.9-40.7 76.2 0 27.2 13.7 52.9 40.7 76.2 23.5 20.3 56.5 38.3 98.2 53.5 83.2 30.4 193.4 47.2 310.4 47.2 116.9 0 227.2-16.7 310.4-47.2 41.7-15.2 74.7-33.2 98.2-53.5 27-23.3 40.7-48.9 40.7-76.2 0-27.2-13.7-52.9-40.7-76.2-23.5-20.3-56.5-38.3-98.2-53.5-83.2-30.4-193.5-47.2-310.4-47.2z m0 313.8c-241.2 0-409.2-72.1-409.2-136.9 0-64.7 168.1-136.9 409.2-136.9S921.2 319.3 921.2 384 753.2 520.9 512 520.9zM381.8 254l277.8 275C638 694.7 580 813.2 512 813.2 425.4 813.2 355.1 621 355.1 384c0-50.8 3.2-99.5 9.1-144.8l17.6 14.8zM365.1 324c0 237.1 70.2 429.2 156.9 429.2 59.1 0 110.6-89.6 137.4-221.8-22 164.5-79.7 281.8-147.4 281.8-86.6 0-156.9-192.2-156.9-429.2 0-50.8 3.2-99.5 9.1-144.8l3.7 3.1c-1.8 26.5-2.8 53.8-2.8 81.7zM512-65.2c-27.2 0-52.9 13.7-76.2 40.7-20.3 23.5-38.3 56.5-53.5 98.2-30.4 83.2-47.2 193.4-47.2 310.4s16.7 227.2 47.2 310.4c15.2 41.7 33.2 74.7 53.5 98.2 23.3 27 48.9 40.7 76.2 40.7s52.9-13.7 76.2-40.7c20.3-23.5 38.3-56.5 53.5-98.2 30.4-83.2 47.2-193.4 47.2-310.4s-16.7-227.2-47.2-310.4c-15.2-41.7-33.2-74.7-53.5-98.2-23.3-27.1-49-40.7-76.2-40.7z m0 858.4c-64.7 0-136.9-168.1-136.9-409.2 0-241.2 72.1-409.2 136.9-409.2s136.9 168 136.9 409.2S576.7 793.2 512 793.2zM664.6 533.9m-55.1 0a55.1 55.1 0 1 1 110.2 0 55.1 55.1 0 1 1-110.2 0ZM664.6 458.8c-41.4 0-75.1 33.7-75.1 75.1S623.2 609 664.6 609s75.1-33.7 75.1-75.1-33.7-75.1-75.1-75.1z m0 110.2c-19.3 0-35.1-15.7-35.1-35.1s15.7-35.1 35.1-35.1 35.1 15.7 35.1 35.1S684 569 664.6 569zM357 231.1m-55.1 0a55.1 55.1 0 1 1 110.2 0 55.1 55.1 0 1 1-110.2 0ZM357 156.1c-41.4 0-75.1 33.7-75.1 75.1s33.7 75.1 75.1 75.1 75.1-33.7 75.1-75.1-33.7-75.1-75.1-75.1z m0 110.1c-19.3 0-35.1-15.7-35.1-35.1S337.6 196 357 196s35.1 15.7 35.1 35.1-15.8 35.1-35.1 35.1z"  horiz-adv-x="1024" />

    
    <glyph glyph-name="baobiaotongji" unicode="&#58961;" d="M922.625 52.125H157.625c-16.875 0-28.125 11.25-28.125 28.125V744c0 16.875-11.25 28.125-28.125 28.125s-28.125-11.25-28.125-28.125v-691.875c0-28.125 22.5-56.25 56.25-56.25h787.5c16.875 0 28.125 11.25 28.125 28.125s-11.25 28.125-22.5 28.125zM213.875 271.5h56.25c5.625 0 16.875 5.625 22.5 16.875l56.25 95.625 84.375-191.25 16.875-16.875c11.25-5.625 28.125 5.625 33.75 16.875l112.5 371.25 78.75-270c0-11.25 11.25-22.5 28.125-22.5h140.625c11.25-16.875 28.125-28.125 45-28.125 28.125 0 56.25 22.5 56.25 56.25s-22.5 56.25-56.25 56.25c-22.5 0-39.375-11.25-45-28.125H720.125L618.875 670.875c0 11.25-16.875 22.5-33.75 16.875-5.625 0-11.25-5.625-11.25-5.625s-5.625-5.625-5.625-11.25L450.125 282.75l-73.125 168.75c0 5.625-5.625 5.625-5.625 11.25-5.625 5.625-16.875 5.625-28.125 0-5.625 0-11.25-5.625-11.25-11.25l-78.75-123.75h-39.375c-16.875 0-28.125-11.25-28.125-28.125 0-11.25 11.25-28.125 28.125-28.125z"  horiz-adv-x="1024" />

    
    <glyph glyph-name="shuipingsuofang-copy" unicode="&#59234;" d="M877.34375 352.96875q-0.84374999-8.4375-8.015625-18.140625t-18.140625-17.71875-24.89062499-13.078125-27.42187501-5.0625q-11.81250001 0-24.890625 5.0625t-24.46875 13.078125-18.5625 17.71875-8.015625 18.140625l0 157.78125-525.65625 0q-21.9375 1.6875-37.546875 11.8125t-15.609375 39.65625q0 18.5625 12.234375 34.171875t40.921875 17.296875l525.65625 0 0 155.25q0 15.1875 6.75 24.890625t17.71875 16.03125 24.46875 9.28125 27 4.640625q13.5 0 27.421875-4.21875t25.31249999-11.390625 18.56250001-17.296875 7.171875-21.9375l0-415.96875zM721.25 24.75q-1.6875 10.96875-7.59375 13.5t-16.875 2.53125q-12.65625 0-32.484375-0.421875t-41.765625-0.84375-42.18750001-0.421875l-32.90624999 0q-8.4375-0.84374999-16.875 1.6875l-2.53125 0q-9.28125 0-35.4375-0.421875t-56.953125-0.421875-58.640625-0.42187499-39.65625-0.42187501q-16.03124999 0-25.3125-3.375t-9.28125-15.1875l-1e-8-37.96875q0-15.1875-8.01562499-19.40625t-20.671875 6.75q-12.65625 10.125-30.375 23.625t-36.28125 27.84375-36.28125 28.265625-31.21875 24.89062499q-12.65625 10.125-13.078125 18.98437501t11.390625 19.828125q12.65625 10.125 29.109375 23.625t34.171875 27.84375 35.015625 28.265625 30.796875 24.890625q14.34375 12.65625 24.04687501 10.125t9.703125-18.5625q0-9.28125 0.42187499-24.46875t1.265625-25.3125q0-10.125 5.90625-12.65625t17.71875-2.53125l40.5 0q28.68749999 0 60.328125 0.421875t60.328125 0.84375 41.34374999 0.421875q7.59375001 0 15.18750001-2.53125l4.21875 0q8.4375 0 26.15625001 0.421875t38.39062499 0.84375 40.921875 0.421875l31.21875 0q16.875 0 25.734375 2.953125t8.859375 14.765625q0 9.28125 0.84375 19.40625t0.84375 19.40625q-1.6875 14.34375 6.75 18.984375t21.9375-5.48437499q12.65625-10.125 29.953125-24.04687502t35.859375-28.26562499 36.28125-27.84375 31.21875-24.46875q12.65625-10.96875 13.078125-19.828125t-11.390625-18.984375q-12.65625-10.125-29.109375-24.046875t-34.171875-28.265625-34.59375-28.265625-30.37499999-24.890625q-15.1875-12.65625-24.89062501-10.125t-9.70312501 18.5625q0.84375 9.28125 1e-8 24.46875t-0.84375 25.3125z"  horiz-adv-x="1055" />

    
    <glyph glyph-name="shuaxin-you" unicode="&#59360;" d="M145.408 305.15200000000004c0-201.216 164.864-366.08 366.08-366.08s366.08 164.864 366.08 366.08h-91.648c0-151.04-123.392-274.944-274.944-274.944S237.056 153.60000000000002 237.056 305.15200000000004c0 151.04 123.392 274.944 274.944 274.944v-205.824l228.864 228.864-229.376 228.352v-160.256c-201.216 0-366.08-164.864-366.08-366.08z"  horiz-adv-x="1024" />

    
    <glyph glyph-name="MIPMPR" unicode="&#58881;" d="M349.69144889 46.12551111000005v160.19911111c0 14.56355555 0.58254222 33.20490667 2.33016889 55.92405333H350.85653334c-3.49525333-16.89372445-6.40796445-28.54456889-8.15559112-33.78744888L276.87367112 46.12551111000005h-44.85575112l-65.82727111 180.58808889c-1.74762667 4.07779555-4.66033778 16.31118222-8.15559111 35.53507555h-1.74762666c1.74762667-22.13660445 2.33016889-44.27320889 2.33016888-66.99235555V46.12551111000005h-50.68117333v264.47416889h82.13845333l57.08913778-159.61656889c4.66033778-13.39847111 8.15559111-25.63185778 9.90321778-37.28270222h0.58254222c3.49525333 14.56355555 6.99050667 26.79694222 11.06830222 37.28270222l57.08913778 159.61656889h79.80828444V46.12551111000005h-55.92405333zM529.11445334 138.16718221999997V46.12551111000005h-56.50659556v264.47416889h90.87658667c65.82727111 0 98.44963555-27.96202667 98.44963555-83.88608 0-26.79694222-9.90321778-48.93354667-29.70965333-65.24472889s-44.85575111-23.88423111-74.56540445-23.30168889h-28.54456888z m0 128.74183111v-85.05116444h24.46677333c33.20490667 0 49.51608889 14.56355555 49.51608889 43.10812444 0 27.96202667-16.31118222 41.94304-48.93354667 41.94304h-25.04931555zM925.82570667 46.12551111000005h-64.66218667l-41.36049778 68.73998222c-8.73813333 13.98101333-15.72864 23.30168889-20.97152 27.37948445s-11.06830222 6.40796445-17.47626666 6.40796444H764.46151112V46.12551111000005h-56.50659556v264.47416889h92.62421333c62.91456 0 94.37184-23.88423111 94.37184-71.65269333 0-18.05880889-5.24288-33.20490667-15.72864-46.02083556-10.48576-12.81592889-25.04931555-22.13660445-43.69066667-27.37948444v-0.58254222c12.23338667-4.07779555 25.63185778-17.47626667 40.19541334-40.19541334l50.09863111-78.6432zM764.46151112 267.49155555000004v-75.73048888h27.37948444c13.39847111 0 23.88423111 4.07779555 32.03982222 11.65084444s12.23338667 17.47626667 12.23338667 28.54456889c0 23.88423111-14.56355555 36.11761778-43.10812445 36.11761778H764.46151112zM349.69144889 418.95253333V579.15164445c0 14.56355555 0.58254222 33.20490667 2.33016889 55.92405333H350.85653334c-3.49525333-16.89372445-6.40796445-28.54456889-8.15559112-33.78744889L276.87367112 418.95253333h-44.85575112L166.19064889 599.5406222199999c-1.74762667 4.07779555-4.66033778 16.31118222-8.15559111 35.53507556h-1.74762666c1.74762667-22.13660445 2.33016889-44.27320889 2.33016888-66.99235556V418.95253333h-50.68117333V683.42670222h82.13845333L246.58147556 523.81013333c4.66033778-13.39847111 8.15559111-25.63185778 9.90321778-37.28270222h1.16508444c3.49525333 14.56355555 6.99050667 26.79694222 11.06830222 37.28270222l57.08913778 159.61656889h79.80828444V418.95253333h-55.92405333zM621.15612445 639.73603555h-22.71914667v-176.51029333h22.71914667V418.95253333H519.79377778v43.69066667h22.13660444V639.73603555H519.79377778v43.69066667h101.36234667v-43.69066667zM791.84099556 510.99420445V418.95253333H735.3344V683.42670222h90.87658667c65.82727111 0 98.44963555-27.96202667 98.44963555-83.88608 0-26.79694222-9.90321778-48.93354667-29.70965333-65.24472889-19.80643555-16.31118222-44.85575111-23.88423111-74.56540444-23.30168888h-28.54456889z m0 128.7418311v-85.05116444h24.46677333c33.20490667 0 49.51608889 14.56355555 49.51608889 43.10812444 0 27.96202667-16.31118222 41.94304-48.93354666 41.94304h-25.04931556z"  horiz-adv-x="1024" />

    
    <glyph glyph-name="sanxian" unicode="&#58892;" d="M92.5696 686.92195555h833.03537778v-81.5559111H92.5696zM92.5696 418.95253333h833.03537778v-81.55591111H92.5696zM92.5696 150.98311110999998h833.03537778v-81.55591111H92.5696z"  horiz-adv-x="1024" />

    
    <glyph glyph-name="3d" unicode="&#58893;" d="M44.6447146 217.48959710999998c36.19791367-29.762729 78.831012-45.04629259 127.89929497-45.04629257 30.5671271 0 55.50346763 7.23958273 73.20022543 22.5231463 18.50115588 15.28356354 27.34953477 36.19791367 27.34953477 64.35184651s-10.45717506 50.67707915-32.17592327 65.1562446-51.48147723 22.52314628-90.89698321 22.52314631h-48.2638849v96.52776979h45.04629256c73.20022543 0 110.20253718 27.34953477 110.20253718 82.04860432 0 51.48147723-28.15393285 77.22221583-84.46179856 77.22221584-37.00231174 0-72.39582734-12.87036929-106.98494484-39.41550602V666.34372663c37.80670983 21.7187482 82.04860433 32.17592326 133.53008151 32.17592328 51.48147723 0 94.11457554-12.87036929 126.29049884-39.41550601 32.17592326-26.54513668 48.2638849-62.74305037 48.26388488-109.39813908 0-78.831012-36.19791367-128.70369303-108.59374101-148.81364511v-1.60879617c37.80670983-4.82638849 68.37383694-20.10995203 91.7013813-45.85069064 22.52314628-25.7407386 34.58911749-57.91666189 34.58911753-94.91897363 0-57.1122638-19.30555395-102.15855635-57.11226381-134.33447963-37.80670983-32.17592326-88.48378899-48.2638849-152.03123742-48.2638849-56.30786571 0-101.35415828 10.45717506-135.9432758 30.56712711v111.00693526zM499.12963071 86.37270981999995V688.86687293h189.03354916c194.66433574 0 291.99650362-98.13656594 291.99650361-293.60529979 0-93.31017747-27.34953477-168.11919905-82.04860432-224.42706476-54.69906955-56.30786571-124.68170265-84.46179857-210.75229737-84.46179856H499.12963071z m116.63772182 497.1180144V190.94446042000004h63.54744844c55.50346763 0 98.94096403 18.50115588 130.31248921 54.69906954 31.37152518 36.19791367 47.45948682 85.26619664 47.45948682 147.20484894 0 59.52545805-16.89235971 106.98494483-49.87268106 139.9652662-32.98032133 33.78471942-75.61341968 50.67707915-128.70369305 50.67707912h-62.74305036z"  horiz-adv-x="1024" />

    
    <glyph glyph-name="yonghu" unicode="&#58883;" d="M512 283.136c-134.656 0-240.128 105.984-240.128 241.152s105.472 240.64 240.128 240.64 240.128-105.984 240.128-241.152-105.472-240.64-240.128-240.64z m0 48.128c105.472 0 192 86.528 192 192.512S617.472 716.8 512 716.8 320 630.272 320 524.288s86.528-193.024 192-193.024zM128-54.272c0 211.968 173.056 385.536 384 385.536s384-173.568 384-385.536h-48.128c0 187.904-148.992 337.408-335.872 337.408s-335.872-149.504-335.872-337.408H128zM204.8 814.08h51.2v-896H204.8zM56.32 675.84h870.4v-51.2H56.32z"  horiz-adv-x="1024" />

    
    <glyph glyph-name="win" unicode="&#58894;" d="M76.64 823.2h403.2v-43.2h-403.2zM443.84 823.2h43.2v-499.2h-43.2zM69.44 823.2h43.2v-499.2h-43.2zM76.64 367.20000000000005h403.2v-43.2h-403.2zM542.24 448.8h403.2v-43.2h-403.2zM904.64 448.8h43.2v-499.2h-43.2zM539.84 448.8h43.2v-499.2h-43.2zM542.24-7.2000000000000455h403.2v-43.2h-403.2zM542.24 823.2h403.2v-43.2h-403.2zM904.64 823.2h43.2v-312h-43.2zM539.84 823.2h43.2v-312h-43.2zM542.24 554.4h403.2v-43.2h-403.2zM76.64 261.6h403.2v-43.2h-403.2zM443.84 261.6h43.2v-312h-43.2zM69.44 261.6h43.2v-312h-43.2zM76.64-7.2000000000000455h403.2v-43.2h-403.2z"  horiz-adv-x="1024" />

    
    <glyph glyph-name="MPR" unicode="&#58895;" d="M229.27284148 570.41351111M346.71335348 487.77018785L255.99211141 210.0140563h-57.78818844L112.45370785 487.77018785l-1.8641351-1.8641351V210.0140563H45.96622222V533.13080889h113.71224178l68.35162075-236.12378074h1.8641351l73.3226477 236.12378074h108.11983645v-323.11675259H346.71335348V487.77018785zM538.71926992 210.0140563h-68.35162074V533.13080889h99.42053927c87.61435022 1.24275675 131.11083615-32.31167525 131.11083614-99.42053926-2.48551348-62.75921541-39.7682157-96.31364741-111.84810667-99.42053926h-50.95302637v-124.27567407z m0 269.05683437v-90.72124208c3.72827022 0 10.5634323-0.62137837 21.1268646-1.86413511 46.60337778-4.97102697 69.59437748 11.18481067 68.35162073 47.22475615 0 31.69029689-22.9909997 46.60337778-68.35162073 45.36062104-10.5634323-1.24275675-17.39859437-1.24275675-21.1268646 0zM809.64023941 339.26075733000005V210.0140563h-70.21575586V533.13080889h137.94599823c73.3226477-2.48551348 110.60534992-30.44754015 111.84810667-83.88608-1.24275675-42.25372918-23.61237808-68.35162075-66.48748563-78.91505304v-1.8641351c31.69029689-3.72827022 50.95302637-27.3406483 57.78818843-71.4585126 0-3.72827022 0.62137837-6.83516208 1.86413512-10.5634323 2.48551348-39.7682157 8.07791882-65.24472889 17.39859438-77.05091793h-75.18678283c-6.83516208 27.96202667-11.18481067 57.16681008-12.4275674 87.61435023-3.72827022 27.96202667-13.67032415 42.25372918-29.82616177 42.25372918h-72.70126934z m0 139.81013334v-85.75021512h57.78818844c31.69029689 0 47.84613452 14.91308089 49.08889126 45.36062104-1.24275675 26.71926992-17.39859437 40.38959408-49.08889126 40.38959408h-57.78818844z"  horiz-adv-x="1024" />

    
    <glyph glyph-name="zengqiang" unicode="&#58899;" d="M164.96 286.55999999999995h60.96v-249.6H164.96zM402.56 499.2h96.48v-462.24H402.56zM664.16 731.04H852.8v-694.56h-188.64z"  horiz-adv-x="1024" />

    
    <glyph glyph-name="xianyun" unicode="&#58900;" d="M159.734375 717.28125h50.625v-687.65625h-50.625zM817.859375 717.28125h50.625v-687.65625h-50.625zM159.734375 736.265625h708.75v-50.625h-708.75zM159.734375 80.25h708.75v-50.625h-708.75zM264.359375 645.5625H398.09375v-72.984375H264.359375zM634.34375 645.5625h133.734375v-72.984375H634.34375zM264.359375 202.59375H398.09375v-72.984375H264.359375zM634.34375 202.59375h133.734375v-72.984375H634.34375z"  horiz-adv-x="1024" />

    
    <glyph glyph-name="Shapecopy" unicode="&#58903;" d="M916.95917568 519.01414073a44.99785107 44.99785107 0 0 0-44.99785107 44.99785107 180.19389551 180.19389551 0 0 1-179.99140605 179.99140517 178.32648516 178.32648516 0 0 1-143.99312432-73.12150811 46.66277197 46.66277197 0 0 0-72.15405469 0A178.3489834 178.3489834 0 0 1 331.9871082 744.00339697a180.19389551 180.19389551 0 0 1-179.99140517-179.99140517 44.99785107 44.99785107 0 0 0-89.99570303 0A270.27959414 270.27959414 0 0 0 331.9871082 833.9991a266.07229541 266.07229541 0 0 0 179.99140518-69.49918125A266.04979629 266.04979629 0 0 0 691.96991855 833.9991a270.27959414 270.27959414 0 0 0 269.98710821-269.9871082 44.99785107 44.99785107 0 0 0-44.99785108-44.99785107zM482.0774416-54.70846376999998a2366.39200518 2366.39200518 0 0 0-258.73764522 275.83682871 44.99785107 44.99785107 0 0 0 70.87161534 55.41485361A2274.75388037 2274.75388037 0 0 1 511.97851338 40.259501070000056a2227.3936418 2227.3936418 0 0 1 218.68955771 236.41871134 44.99785107 44.99785107 0 1 0 70.91661358-55.4148545A2315.81441953 2315.81441953 0 0 0 541.74459219-54.70846376999998a44.99785107 44.99785107 0 0 0-59.66715058 0zM556.97636445 204.02918145h-2.7898664a44.99785107 44.99785107 0 0 0-37.46071143 24.74881787l-100.32270908 200.64541904-46.97775703-70.48913379A44.99785107 44.99785107 0 0 0 331.9871082 339.02273555H106.99785107a44.99785107 44.99785107 0 1 0 0 89.99570215h200.91540674l76.63134112 114.94701123a44.99785107 44.99785107 0 0 0 77.68879013-4.83726886l100.32270909-200.64541904 46.97775703 70.48913379A44.99785107 44.99785107 0 0 0 646.97206748 429.01843769h269.9871082a44.99785107 44.99785107 0 0 0 0-89.99570214H671.04591787l-76.63134024-114.94701123A44.99785107 44.99785107 0 0 0 556.97636445 204.02918145z"  horiz-adv-x="1024" />

    
    <glyph glyph-name="preFrm" unicode="&#59455;" d="M907.5078125 384c0 218.42817799-177.07963451 395.5078125-395.5078125 395.5078125C293.57182201 779.5078125 116.4921875 602.42817799 116.4921875 384c0-218.42817799 177.07963451-395.5078125 395.5078125-395.5078125C730.42817799-11.5078125 907.5078125 165.57182201 907.5078125 384zM541.59117536 572.045987l51.05646272-51.0564627L452.85360418 381.12357983000004l152.30646273-152.30646272-50.84073174-50.84073175L350.92045483 381.37526648000005 541.59117536 572.045987z"  horiz-adv-x="1024" />

    
    <glyph glyph-name="guangbiao" unicode="&#58929;" d="M784.88 630.576c19.728 0 35.736 19.464 35.736 43.488 0 24-16.008 43.488-35.736 43.488H257V828.144C257 847.944 237.824 864 214.184 864S171.392 847.944 171.392 828.144V717.6H95.624C75.896 717.6 59.912 698.088 59.912 674.088c0-24 15.984-43.488 35.712-43.488h75.768V197.76c0-19.8 19.2-35.856 42.792-35.856s42.816 16.056 42.816 35.856V630.576zM889.568 26.927999999999997L746.864 182.39999999999998a651.024 651.024 0 0 0 78.024 32.376q38.712 13.08 69.6 21.6a705.84 705.84 0 0 0 69.6 16.248L389.96 536.1120000000001l120.912-594.408a451.944 451.944 0 0 0 33.912 57.6q16.8 25.368 41.592 55.368a514.032 514.032 0 0 0 56.856 58.44l129.6-180.936a73.392 73.392 0 0 1 23.184-19.2 78.936 78.936 0 0 1 27.504-8.496 74.4 74.4 0 0 1 28.8 2.4A67.728 67.728 0 0 1 878.312-79.20000000000005a73.704 73.704 0 0 1 19.2 23.184 78.624 78.624 0 0 1 8.496 27.504 74.4 74.4 0 0 1-2.4 28.8 73.272 73.272 0 0 1-14.04 26.64z"  horiz-adv-x="1024" />

    
    <glyph glyph-name="fangda" unicode="&#59030;" d="M964.096-18.94399999999996l-138.752 138.752c75.776 81.408 122.368 189.952 122.368 309.248 0 250.88-203.776 454.656-454.656 454.656S38.4 680.448 38.4 429.568c0-90.112 26.624-177.152 76.288-252.416 10.24-15.872 31.744-19.968 47.104-9.216s19.968 31.744 9.216 47.104c-42.496 63.488-65.024 137.728-65.024 214.528 0 212.992 173.568 386.56 386.56 386.56s386.56-173.568 386.56-386.56-173.056-386.56-386.048-386.56c-76.8 0-151.04 22.528-215.04 65.024-15.36 10.24-36.864 6.144-47.616-9.216-10.24-15.36-6.144-36.864 9.216-47.616 74.752-50.176 162.304-76.8 252.928-76.8 90.112 0 173.568 26.624 244.224 72.192l146.432-146.432c10.752-10.752 25.6-16.384 40.448-16.384 14.848 0 29.184 5.632 40.448 16.384 22.016 22.528 22.016 58.88 0 80.896zM680.96 368.64H281.6c-16.896 0-30.72 13.824-30.72 30.72V460.8c0 16.896 13.824 30.72 30.72 30.72h399.36c16.896 0 30.72-13.824 30.72-30.72v-61.44c0-16.896-13.824-30.72-30.72-30.72zM542.72 629.76v-399.36c0-16.896-13.824-30.72-30.72-30.72H450.56c-16.896 0-30.72 13.824-30.72 30.72V629.76c0 16.896 13.824 30.72 30.72 30.72h61.44c16.896 0 30.72-13.824 30.72-30.72z"  horiz-adv-x="1024" />

    
    <glyph glyph-name="heibaimoshi" unicode="&#58925;" d="M952.78515219 571.4592C868.58835219 770.4192 661.70355219 888.4608 447.58515219 859.7136 233.46675219 830.9664 65.03955219 662.5391999999999 36.29235219 448.4208c-28.7472-214.1184 89.2944-421.0032 288.2544-505.2A479.1984 479.1984 0 0 1 990.47955219 384.864a476.4096 476.4096 0 0 1-37.6944 186.5952z m-153.7488-474.4896a404.2704 404.2704 0 0 0-270.3456-118.8624v286.7952l1.128 0.384-1.128 3.312V791.6351999999999c217.8336-9.384 389.616-188.7264 389.6064-406.7664a404.4864 404.4864 0 0 0-119.2608-287.8992z m0 0"  horiz-adv-x="1024" />

    
    <glyph glyph-name="shezhi" unicode="&#58955;" d="M920.1 752h-817c-22.1 0-40 17.9-40 40s17.9 40 40 40h817c22.1 0 40-17.9 40-40s-17.9-40-40-40zM463 344.5H103.1c-22.1 0-40 17.9-40 40s17.9 40 40 40H463c22.1 0 40-17.9 40-40s-17.9-40-40-40zM395-13H103.1c-22.1 0-40 17.9-40 40s17.9 40 40 40H395c22.1 0 40-17.9 40-40s-17.9-40-40-40zM741.4 383.3l9.6-50.2 75.7-44 47.5 17 21.8-37.6-38.6-33.1 0.1-87.7 38.4-32.6-21.8-37.6-47.1 16.9-76.2-43.9-9.7-49.8h-43l-9.1 49.8-75.4 43.9-47.9-16.6-22 37.1 38.6 33.2 0.3 87.5-38.9 33.1 22 37.4 47.7-17 75.9 44.4 8.8 49.3 43.3 0.5m0 64h-0.8l-43.4-0.5c-30.7-0.4-56.8-22.5-62.2-52.8l-3.6-20.2-24.6-14.4-19.6 7c-7.1 2.5-14.3 3.7-21.5 3.7-22.2 0-43.5-11.6-55.2-31.6l-22-37.4c-15.7-26.8-9.9-61 13.7-81.1l16.3-13.9-0.1-28.5-16.4-14.1c-23.6-20.3-29.2-54.5-13.3-81.3l22-37.1a64.03 64.03 0 0 1 55-31.3c7 0 14.1 1.1 21 3.5l20.1 7 24.6-14.3 3.8-20.8c5.6-30.4 32.1-52.5 62.9-52.5h43c30.6 0 57 21.7 62.8 51.8l4.1 21.1 25.2 14.5 19.2-6.9c7.1-2.5 14.4-3.8 21.6-3.8 22.3 0 43.7 11.7 55.4 31.9l21.8 37.6c15.5 26.8 9.6 60.8-14 80.9l-15.8 13.4v28.6l16.2 13.9c23.4 20.1 29.1 54 13.7 80.6l-21.8 37.6c-11.7 20.2-33.1 31.9-55.4 31.9-7.2 0-14.5-1.2-21.6-3.8l-19.5-7-24.7 14.4-4.1 21.5c-5.7 30.6-32.1 52.4-62.8 52.4z"  horiz-adv-x="1024" />

    
    <glyph glyph-name="yinliangtiaojie" unicode="&#58906;" d="M1071.28583984 11.14248047000001H884.85751953C865.57167969-33.85751952999999 820.57167969-66 769.14160156-66s-96.42832031 32.14248047-115.71416015 77.14248047H81.28583984C68.42832031 11.14248047000001 62 17.571679689999996 62 30.428320310000004v64.28583985C62 107.57167969 68.42832031 114 81.28583984 114h572.14248047c19.28583984 45 64.28583984 77.14248047 115.71416016 77.14248047S865.57167969 159 884.85839844 114h186.42832031c12.85664062 0 19.28583984-6.42832031 19.28583984-19.28583984v-64.28583985c0-12.85664062-6.42919922-19.28583984-19.28583984-19.28583984z m0 321.42919922H434.85751953c-19.28583984-45-64.28583984-77.14335937-115.71503906-77.14335938s-96.42832031 32.14335938-115.71416016 77.14335938H81.28583984C68.42832031 332.57167969 62 339 62 351.85751953V416.14160156c0 12.85751953 6.42832031 19.28583984 19.28583984 19.28583985h122.14248047c19.28583984 45 64.28583984 77.14335937 115.71416016 77.14335937s96.42919922-32.14335938 115.71503906-77.14335937h636.42832031c12.85664062 0 19.28583984-6.42832031 19.28583985-19.28583985v-64.28496094c0-12.85751953-6.42919922-19.28583984-19.28583985-19.28583984z m0 321.42832031H820.57167969c-19.28583984-45-64.28583984-77.14248047-115.71416016-77.14248047S608.42832031 609 589.14160156 654H81.28583984C68.42832031 654 62 660.42832031 62 673.28583984v64.28583985c0 12.85664062 6.42832031 19.28583984 19.28583984 19.28583984H589.14160156C608.42832031 801.85751953 653.42832031 834 704.85839844 834s96.42832031-32.14248047 115.71416015-77.14248047h250.71416016c12.85664062 0 19.28583984-6.42919922 19.28583984-19.28583984v-64.28583985c0-12.85751953-6.42919922-19.28583984-19.28583984-19.28583984z"  horiz-adv-x="1170" />

    


  </font>
</defs>
</svg>
